<?xml version="1.0" encoding="utf-8"?>
<!-- Generator: Adobe Illustrator 19.2.0, SVG Export Plug-In . SVG Version: 6.00 Build 0)  -->
<svg version="1.1" id="Layer_1" xmlns="http://www.w3.org/2000/svg" xmlns:xlink="http://www.w3.org/1999/xlink" x="0px" y="0px"
	 viewBox="0 0 541.2 247" style="enable-background:new 0 0 541.2 247;" xml:space="preserve">
<style type="text/css">
	.st0{font-family:'MyriadPro-Regular';}
	.st1{font-size:19.9519px;}
	.st2{font-size:13.0571px;}
	.st3{font-size:13.2463px;}
	.st4{fill:none;stroke:#000000;stroke-width:3;stroke-miterlimit:10;}
	.st5{font-size:12px;}
	.st6{fill:#F4F4F4;}
	.st7{fill:#FFFFFF;}
	.st8{fill:#EAEAEA;}
	.st9{fill:#969696;}
	.st10{fill:#BCBCBC;}
	.st11{fill:#B6B3B3;}
	.st12{fill:#B1AFAF;}
	.st13{fill:#B5B3B3;}
	.st14{fill:#757071;}
	.st15{fill:#686969;}
	.st16{fill:#525252;}
	.st17{fill:#303030;}
	.st18{clip-path:url(#SVGID_2_);fill:#303030;}
	.st19{fill-rule:evenodd;clip-rule:evenodd;fill:#181616;}
	.st20{fill:#181616;}
</style>
<g id="rethinkdb-logo">
	<path id="B" d="M521.1,204.8c-0.5,1.5-1.2,2.8-2.7,3.5c-1.2,0.5-2.5,1.1-3.8,1.1c-2.8,0.2-5.7,0.1-8.5,0c-0.5,0-1.1,0.1-1.1-0.7
		c0-0.9,0.3-1.4,1.1-1.5c1.5-0.2,1.5-0.2,1.5-1.7c0-4.7,0-9.5,0-14.2c0-0.3,0-0.7,0-1.1c-0.7,0-1.4,0-2,0c-0.9,0-0.9-0.6-1-1.2
		c-0.1-0.8,0.4-0.8,1-0.8c2.4,0,4.8-0.1,7.2,0c2.2,0.1,4.4,0.3,6,2.1c1.4,1.5,1.6,4.3,0,5.8c-0.7,0.7-1.5,1.3-2.2,1.9
		c2.2,0.4,3.7,1.7,4.5,3.8C521.1,202.8,521.1,203.8,521.1,204.8z M510.6,199.2c0,2-0.1,3.9,0,5.8c0.1,1.5,0.6,2.2,1.6,2.2
		c1.1,0,2.2,0,3.2-0.2c0.7-0.2,1.5-0.6,1.8-1.2c1-1.9,0.9-4.5-1.6-5.9C514.1,199,512.5,199.2,510.6,199.2z M510.7,196.9
		c0.6,0,1.1,0,1.6,0c0.5,0,1-0.1,1.5-0.2c1.4-0.1,2.4-1,2.7-2.7c0.2-1-0.2-2.5-1.5-3c-1.4-0.4-2.9-0.6-4.4-0.8
		C510.7,192.6,510.7,194.7,510.7,196.9z"/>
	<path id="D" d="M486.4,190.2c-0.8,0-1.4,0-2.1,0c-0.9,0-0.8-0.7-0.9-1.2c-0.1-0.6,0.3-0.9,0.9-0.9c2.9,0,5.7-0.1,8.6,0
		c2.2,0.1,4.4,0.5,6.3,2c1.6,1.2,2.3,2.9,2.7,4.6c0.6,2.6,0.6,5.2-0.1,7.8c-0.8,2.9-2.6,4.7-5.3,5.9c-1.7,0.8-3.6,0.9-5.5,0.9
		c-2,0-4,0-6,0c-0.6,0-1.2,0-1.2-0.8c0-0.7,0.2-1.3,1.1-1.4c1.5-0.2,1.5-0.2,1.5-1.8c0-4.7,0-9.4,0-14.1
		C486.4,191,486.4,190.7,486.4,190.2z M489.6,207c0.9,0,1.8,0,2.6,0c2.3,0.1,5.4-2.2,6.1-4.4c0.7-1.9,0.6-3.9,0.4-5.9
		c-0.7-5.4-4.7-6.9-9.1-6.2C489.6,196,489.6,201.5,489.6,207z"/>
	<path id="k-base" d="M470.7,187.1c0.2,0.6,0.5,1.2,0.5,1.8c0,5.7,0,11.5,0,17.2c0,0.3,0,0.7,0,1.1c0.3,0,0.5,0.1,0.8,0
		c0.7-0.1,1,0.3,1.1,0.9c0.1,0.7-0.3,1.3-1,1.3c-1.9,0.1-3.7,0-5.6,0c-0.6,0-0.7-0.4-0.7-1c0-0.7,0.1-1.2,0.9-1.3
		c0.5-0.1,1.4,0.1,1.6-0.2c0.3-0.6,0.2-1.3,0.2-2c0-4.8,0-9.5,0-14.3c0-0.3,0-0.7,0-1.1c-0.7,0-1.4,0.1-2.1,0
		c-0.3-0.1-0.8-0.4-0.9-0.7c-0.1-0.5-0.4-1.2,0.6-1.4c0.8-0.1,1.6-0.2,2.4-0.3c0.3-0.1,0.7-0.1,1-0.2
		C470,187.1,470.3,187.1,470.7,187.1z"/>
	<path id="k-ext" d="M474.5,200.9c0.7,0.8,1.2,1.5,1.8,2.1c1.1,1.2,2.2,2.4,3.4,3.6c0.3,0.3,0.9,0.5,1.4,0.6c0.7,0.1,0.9,0.4,0.9,1
		c0,0.7-0.2,1.2-0.9,1.2c-1,0.1-2.1,0.1-3.1,0c-0.4-0.1-0.8-0.6-1.2-1.1c-1.8-2.3-3.5-4.6-5.3-6.9c-0.3-0.4-0.2-0.7,0.1-1
		c1.6-1.6,3.2-3.2,4.8-4.8c0.2-0.2,0.6-0.3,0.9-0.3c0.7-0.1,1.4,0,2,0c0.9-0.1,1,0.5,1,1.2c0,0.7-0.4,0.9-1,0.9
		c-0.9-0.1-1.6,0.3-2.2,0.9C476.4,199.2,475.5,200,474.5,200.9z"/>
	<path id="n" d="M462.7,207.2c0.6,0,1.1,0,1.6,0c0.6,0,1,0.2,1,0.9c0,0.7-0.2,1.3-0.9,1.3c-1.9,0.1-3.9,0.1-5.8,0
		c-0.3,0-0.7-0.5-0.7-0.9c0-0.6,0.2-1.3,1-1.3c1,0,1.1-0.5,1.1-1.2c0-1.8,0-3.6,0-5.4c0-0.5-0.1-1.1-0.3-1.6
		c-0.7-1.7-1.7-1.8-3.5-1.2c-0.4,0.1-0.8,0.4-1.1,0.6c-0.9,0.5-1.4,1.2-1.3,2.3c0.1,2.1,0,4.2,0,6.5c0.6,0,1.2,0,1.8,0
		c0.6,0,1,0.2,1,0.9c0,0.7-0.2,1.3-0.9,1.4c-2.2,0.1-4.4,0-6.5,0c-0.6,0-0.8-0.5-0.8-1c0-0.7,0.3-1.1,0.9-1.2
		c0.5-0.1,1.3,0.1,1.5-0.2c0.3-0.5,0.2-1.2,0.2-1.8c0-2.5,0-5.1,0-7.7c-0.7,0-1.4,0-2,0c-0.5,0-0.9-0.1-1-0.7c0-0.6-0.1-1.2,0.7-1.3
		c0.6-0.1,1.1-0.3,1.7-0.4c0.6-0.1,1.2-0.1,1.8-0.2c0.8-0.1,1.2,0.4,1.5,1.7c0.8-0.3,1.5-0.6,2.3-1c1.2-0.6,2.6-0.7,3.9-0.4
		c1.8,0.3,2.9,2,2.9,4C462.7,201.8,462.7,204.4,462.7,207.2z"/>
	<path id="i-base" d="M441.8,197.5c-0.8,0-1.5-0.1-2.1,0c-0.8,0.1-1-0.4-1-1c-0.1-0.5,0.1-1.1,0.8-1.1c1.5-0.1,3-0.3,4.5-0.3
		c0.7,0,0.7,0.8,0.7,1.4c0,2.4,0,4.7,0,7.1c0,1.1,0,2.3,0,3.6c0.5,0,1.1,0,1.6,0c0.6,0,1.1,0.1,1.1,0.9c0,0.8-0.2,1.3-1.1,1.4
		c-1.6,0-3.2,0-4.8,0c-0.4,0-0.7,0-1.1,0c-0.7,0.1-1.1-0.3-1.1-0.9c0-0.6,0.2-1.3,1-1.3c0.3,0,0.7,0.1,0.9,0
		c0.3-0.1,0.7-0.5,0.7-0.7C441.8,203.5,441.8,200.6,441.8,197.5z"/>
	<path id="i-dot" d="M442.8,191.5c-1.2,0-1.9-0.7-1.9-1.9c0-1.1,0.8-2,1.9-2c1.1,0,2,0.9,2,2.1C444.8,190.7,443.9,191.5,442.8,191.5
		z"/>
	<path id="h" d="M425.9,187.1c0.2,0.6,0.5,1.2,0.5,1.8c0.1,2.5,0,5,0,7.5c1.1-0.4,2.2-0.9,3.4-1.1c1.6-0.3,3.5-0.5,4.6,1.1
		c0.6,0.8,0.9,2.1,1,3.1c0.1,2.3,0,4.5,0,6.8c0,0.3,0,0.6,0,1c0.5,0,1,0,1.5,0c0.6,0,1.1,0.2,1.1,0.9c0,0.6-0.2,1.3-1,1.3
		c-1.9,0.1-3.9,0-5.8,0c-0.6,0-0.7-0.5-0.7-1c0-0.7,0.3-1.2,0.9-1.2c1.2,0.1,1.2-0.6,1.2-1.4c-0.1-2-0.1-4-0.2-5.9
		c-0.1-1.6-1.3-2.5-2.8-2.2c-0.4,0.1-0.8,0.2-1.1,0.3c-1.8,0.6-2,0.9-2,2.7c0,2.1,0,4.2,0,6.4c0.6,0,1.1,0,1.6,0c0.5,0,1,0,1,0.7
		c0,0.7,0.1,1.4-0.8,1.5c-2.2,0.1-4.4,0-6.6,0c-0.7,0-0.6-0.6-0.6-1.1c-0.1-0.7,0.2-1,0.8-1.1c0.6-0.1,1.4,0,1.6-0.3
		c0.3-0.5,0.1-1.3,0.1-1.9c0-4.8,0-9.5,0-14.3c0-0.3,0-0.7,0-1.1c-0.7,0-1.4,0.1-2.1,0c-0.3-0.1-0.8-0.4-0.9-0.7
		c-0.1-0.5-0.4-1.2,0.6-1.4c0.8-0.1,1.6-0.2,2.4-0.3c0.3-0.1,0.7-0.1,1-0.2C425.2,187.1,425.6,187.1,425.9,187.1z"/>
	<path id="t" d="M413.6,197.5c-1,0-1.8,0-2.8,0c0.1-0.7,0.2-1.3,0.3-1.8c0-0.2,0.3-0.3,0.5-0.4c0,0,0.1,0,0.2,0
		c2-0.1,2.2-0.2,2.4-2.3c0.1-0.9,0.1-1.9,1.3-2.1c0.6-0.1,1-0.1,0.9,0.7c0,1.2,0,2.4,0,3.7c1.1,0,2.2,0,3.2,0c0.6,0,1,0.3,0.9,0.8
		c-0.1,0.5,0.1,1.4-0.9,1.4c-1,0-2,0-3.2,0c0,1,0,1.9,0,2.8c0,1.9,0,3.9,0,5.8c0,0.8,0.3,1.2,1.1,1.1c0.5,0,0.9-0.1,1.4-0.2
		c0.6-0.1,1.1,0,1.3,0.7c0.1,0.6,0,1-0.7,1.2c-0.9,0.2-1.9,0.6-2.8,0.7c-1.9,0.2-2.9-1.1-3-2.9c-0.1-2.7,0-5.3,0-8
		C413.6,198.3,413.6,198,413.6,197.5z"/>
	<path id="e" d="M399.8,202.9c0.4,1.1,0.6,2.2,1.1,3c1.2,1.8,2.8,1.8,4.7,1.1c0.7-0.3,1.4-0.7,2.1-1.1c0.6-0.3,1-0.2,1.2,0.4
		c0.3,0.5,0.7,1,0,1.6c-2.3,1.7-4.8,2.3-7.5,1.6c-1.8-0.5-3-1.8-3.6-3.5c-0.9-2.5-1-5,0.3-7.4c1.1-2.1,3-3.2,5.3-3.3
		c1.8-0.1,3.5,0.1,4.8,1.6c1.2,1.4,1.4,3.1,1.4,4.9c0,0.7-0.9,1.3-1.8,1.3c-2.2,0-4.5,0-6.7,0C400.7,202.9,400.4,202.9,399.8,202.9z
		 M406.4,200.8c0.2-1.9-0.6-3.3-2-3.5c-2.7-0.3-4.4,1.5-4.4,3.5C402.2,200.8,404.3,200.8,406.4,200.8z"/>
	<path id="r" d="M381,190.2c-0.8,0-1.4,0-2,0c-1,0.1-0.9-0.7-1-1.2c-0.1-0.6,0.4-0.8,1-0.8c2.6,0,5.2-0.1,7.7,0
		c2.5,0.2,4.9,0.8,6.1,3.5c1.3,2.9,0.3,6.5-3,7.9c-0.1,0.1-0.3,0.1-0.5,0.3c0.6,1,1.2,2,1.8,3c0.7,1.1,1.5,2.2,2.2,3.4
		c0.4,0.7,1,1,1.8,1c0.7,0,1.1,0.2,1.1,1c0,0.8-0.2,1.2-1.1,1.3c-2.4,0.3-4-0.7-5.2-2.9c-1-1.9-2.2-3.6-3.2-5.4
		c-0.6-1.1-1.5-0.5-2.4-0.7c0,2.3,0,4.4,0,6.8c0.8,0,1.5,0,2.3,0c0.6,0,1,0,1,0.8c0,0.7,0,1.4-1,1.4c-0.2,0-0.5,0-0.7,0
		c-2.1,0-4.2,0-6.2,0c-0.6,0-1.1,0-1.2-0.8c0-0.7,0.3-1.3,1-1.4c0.5-0.1,1.3,0,1.5-0.3c0.3-0.4,0.1-1.1,0.1-1.7c0-4.6,0-9.3,0-13.9
		C381,191,381,190.7,381,190.2z M384.2,198.3c1-0.1,2-0.1,2.9-0.3c1.3-0.3,2.5-1,2.7-2.4c0.2-1.4,0.4-2.9-0.9-4
		c-1.4-1.2-3.1-0.9-4.8-1.2C384.2,193.1,384.2,195.6,384.2,198.3z"/>
</g>
<text transform="matrix(1 0 0 1 228.7562 207.1713)"><tspan x="0" y="0" class="st0 st1">dashboard</tspan><tspan x="9" y="23.9" class="st0 st1">backend</tspan></text>
<text transform="matrix(1 0 0 1 193.6696 69.8945)" class="st0 st2">travis-ci api</text>
<text transform="matrix(1 0 0 1 293.0406 69.8471)" class="st0 st3">github api</text>
<text transform="matrix(1 0 0 1 18.1324 207.1713)"><tspan x="0" y="0" class="st0 st1">dashboard</tspan><tspan x="8.1" y="23.9" class="st0 st1">frontend</tspan></text>
<g>
	<g>
		<line class="st4" x1="327.7" y1="142.7" x2="392.1" y2="142.7"/>
		<g>
			<polygon points="333.7,147.8 328.6,142.7 333.7,137.6 329.4,137.6 324.3,142.7 329.4,147.8 			"/>
		</g>
		<g>
			<polygon points="386.2,147.8 391.3,142.7 386.2,137.6 390.5,137.6 395.6,142.7 390.5,147.8 			"/>
		</g>
	</g>
</g>
<g>
	<g>
		<line class="st4" x1="128.7" y1="142.7" x2="214.2" y2="142.7"/>
		<g>
			<polygon points="134.7,147.8 129.6,142.7 134.7,137.6 130.4,137.6 125.3,142.7 130.4,147.8 			"/>
		</g>
		<g>
			<polygon points="208.3,147.8 213.3,142.7 208.3,137.6 212.6,137.6 217.7,142.7 212.6,147.8 			"/>
		</g>
	</g>
</g>
<g>
	<g>
		<line class="st4" x1="227.9" y1="79.1" x2="261.7" y2="112.9"/>
		<g>
			<polygon points="253.9,112.3 261.1,112.3 261.1,105.1 264.1,108.2 264.1,115.4 256.9,115.4 			"/>
		</g>
	</g>
</g>
<g>
	<g>
		<line class="st4" x1="320.1" y1="79.1" x2="286.3" y2="112.9"/>
		<g>
			<polygon points="286.9,105.1 286.9,112.3 294.1,112.3 291,115.4 283.9,115.4 283.9,108.2 			"/>
		</g>
	</g>
</g>
<g>
	<path d="M102.2,161.4v-13.8h-5.1v11c0,1.7-1.4,3.1-3.1,3.1H31.2c-1.7,0-3.1-1.4-3.1-3.1V121c0-1.7,1.4-3.1,3.1-3.1h35.9v-3.2H26.6
		c-2,0-3.6,1.6-3.6,3.6v21.6v21.6v3.6l-9,10.8c0,3,2.4,5.4,5.4,5.4h86.4c3,0,5.4-2.4,5.4-5.4l-9-10.8L102.2,161.4L102.2,161.4z
		 M69.8,179.4H55.4c-0.5,0-0.9-0.4-0.9-0.9s0.4-0.9,0.9-0.9h14.4c0.5,0,0.9,0.4,0.9,0.9C70.7,179,70.3,179.4,69.8,179.4z
		 M47.8,175.8l2.7-3.3h24.2l2.7,3.3C77.4,175.8,47.8,175.8,47.8,175.8z"/>
	<g>
		<rect x="56.7" y="141.2" width="7.5" height="7.5"/>
		<rect x="61.4" y="130.8" width="7.5" height="7.5"/>
		<rect x="68.8" y="140.3" width="7.5" height="7.5"/>
		<rect x="74.8" y="127.8" width="8.9" height="8.9"/>
		<rect x="87.4" y="100.5" width="8.9" height="8.9"/>
		<rect x="71.2" y="116.6" width="8.9" height="8.9"/>
		<rect x="85.2" y="112.8" width="12.7" height="12.7"/>
		<rect x="94.7" y="128.1" width="15.4" height="15.4"/>
		<rect x="100.5" y="99.1" width="19.1" height="19.1"/>
		<rect x="82.9" y="137.7" width="8.9" height="8.9"/>
	</g>
</g>
<text transform="matrix(1 0 0 1 340.0094 139.5785)"><tspan x="0" y="0" class="st0 st5">rethink</tspan><tspan x="-3.5" y="14.4" class="st0 st5">protocol</tspan></text>
<text transform="matrix(1 0 0 1 141.1056 139.5785)"><tspan x="0" y="0" class="st0 st5">websockets</tspan><tspan x="11.1" y="14.4" class="st0 st5">rest api</tspan></text>
<g>
	<g>
		<g>
			<path d="M264.9,120.1h-32.2c-1.4,0-2.5,1.1-2.5,2.5v57c0,1.4,1.1,2.5,2.5,2.5h32.2c1.4,0,2.5-1.1,2.5-2.5v-57
				C267.3,121.2,266.2,120.1,264.9,120.1z M248.7,165.7c-2.1,0-3.7-1.7-3.7-3.7c0-2.1,1.7-3.7,3.7-3.7c2.1,0,3.7,1.7,3.7,3.7
				C252.5,164,250.8,165.7,248.7,165.7z M262.4,147.6h-27.3v-1.2h27.3V147.6z M262.4,140.2h-27.3V139h27.3V140.2z M262.4,132.1
				h-27.3v-7.4h27.3V132.1z"/>
		</g>
		<g>
			<ellipse cx="259.1" cy="129.8" rx="1.2" ry="0.6"/>
		</g>
	</g>
	<g>
		<g>
			<path d="M314.4,120.1h-32.2c-1.4,0-2.5,1.1-2.5,2.5v57c0,1.4,1.1,2.5,2.5,2.5h32.2c1.4,0,2.5-1.1,2.5-2.5v-57
				C316.9,121.2,315.8,120.1,314.4,120.1z M298.3,165.7c-2.1,0-3.7-1.7-3.7-3.7c0-2.1,1.7-3.7,3.7-3.7s3.7,1.7,3.7,3.7
				C302,164,300.4,165.7,298.3,165.7z M311.9,147.6h-27.3v-1.2h27.3V147.6z M311.9,140.2h-27.3V139h27.3V140.2z M311.9,132.1h-27.3
				v-7.4h27.3V132.1z"/>
		</g>
		<g>
			<ellipse cx="308.6" cy="129.8" rx="1.2" ry="0.6"/>
		</g>
	</g>
</g>
<g>
	<path d="M467,125.7c-3.6,0-7,0.9-10,2.5c2.8,3.2,4.9,7.1,6,11.3c1.2-0.6,2.5-1,4-1c4.7,0,8.5,3.8,8.5,8.5c0,4.7-3.8,8.5-8.5,8.5
		c-1.4,0-2.8-0.4-4-1c-1.1,4.2-3.2,8.1-6,11.3c3,1.6,6.4,2.5,10,2.5c11.8,0,21.3-9.5,21.3-21.3C488.3,135.3,478.7,125.7,467,125.7z"
		/>
	<path d="M467,151.3c-1.2,0-2.3-0.5-3.1-1.3c-0.1,1.2-0.3,2.4-0.6,3.5c1.1,0.6,2.3,1,3.7,1c4.1,0,7.5-3.3,7.5-7.5s-3.3-7.5-7.5-7.5
		c-1.3,0-2.6,0.4-3.7,1c0.3,1.2,0.5,2.3,0.6,3.5c0.8-0.8,1.9-1.3,3.1-1.3c2.3,0,4.3,1.9,4.3,4.3C471.2,149.4,469.3,151.3,467,151.3z
		"/>
	<path d="M435.2,137.8c-5.1,0-9.2,4.1-9.2,9.2c0,5.1,4.1,9.2,9.2,9.2s9.2-4.1,9.2-9.2C444.4,142,440.3,137.8,435.2,137.8z
		 M435.2,152.3c-2.9,0-5.2-2.4-5.2-5.2c0-2.9,2.3-5.2,5.2-5.2s5.2,2.3,5.2,5.2C440.4,149.9,438.1,152.3,435.2,152.3z"/>
	<path d="M435.2,120.8c-14.5,0-26.2,11.7-26.2,26.2c0,14.5,11.7,26.2,26.2,26.2s26.2-11.7,26.2-26.2
		C461.4,132.5,449.7,120.8,435.2,120.8z M435.2,157.5c-5.8,0-10.5-4.7-10.5-10.5s4.7-10.5,10.5-10.5c5.8,0,10.5,4.7,10.5,10.5
		C445.7,152.8,441,157.5,435.2,157.5z"/>
</g>
<g>
	<path class="st6" d="M228.4,48.7c-0.2,0-0.5,0.1-0.7,0.1c-0.2,0-0.3,0-0.5,0l-0.1,0c0.2-0.4,0.3-0.7,0.4-1
		C227.8,48,228.1,48.3,228.4,48.7L228.4,48.7z"/>
	<path class="st6" d="M228.1,29.9c-0.4,0.3-0.8,0.6-1.2,0.8l-1.4,0.8c-0.9,0.1-1.6,0.3-1.7,0.3c0,0,0,0-0.1,0
		c-0.1,0-0.1,0.1-0.1,0.2l-1.4,4.7l-7.6,1.7l-2.4-1.7l-0.7-5.6c1.4-0.2,3.2-0.5,5.3-0.8c-0.2,0.3-0.5,0.6-0.7,0.9l-1.3,1.9l1.9-1.3
		c0,0,1.2-0.8,3.2-1.8c2-0.1,4.1-0.2,6.4-0.2C227,29.9,227.6,29.9,228.1,29.9L228.1,29.9z M216.3,36.3c0.5-0.3,1.1-0.2,2.1-0.2
		c0.1,0,0.2,0,0.3,0c0.1,0,0.2,0,0.3,0c1,0,1.8,0.1,1.8-1.5c0-1.5-0.7-2.8-1.7-2.8c-1,0-1.9,1.3-1.9,2.8c0,0.4,0.1,0.7,0.2,0.9
		C216.6,35.7,216.3,36.2,216.3,36.3L216.3,36.3z"/>
	<path class="st6" d="M241.3,31.2l-0.7,4.8l-2.4,1.7l-7.6-0.9l-1.4-4.7c0-0.1-0.1-0.2-0.2-0.2c0,0-1-0.3-2-0.4l0.2,0
		c0.2,0,2.8-0.3,5.9-1.4C236.5,30.4,239.3,30.9,241.3,31.2L241.3,31.2z M236.4,35.6c0,0-0.2-0.7-1.1-0.5c0.1-0.2,0.2-0.5,0.1-1
		c-0.1-1.5-1-2.8-2-2.7c-1,0-1.6,1.3-1.6,2.9c0.1,1.5,0.9,1.5,1.9,1.5C235.1,35.7,235.8,35.3,236.4,35.6L236.4,35.6z"/>
	<path class="st7" d="M233.8,32.9c0,0.3-0.2,0.5-0.5,0.5c-0.3,0-0.5-0.2-0.5-0.5c0-0.3,0.2-0.5,0.5-0.5
		C233.6,32.4,233.8,32.6,233.8,32.9L233.8,32.9z"/>
	<path class="st7" d="M219.8,33.2c0,0.3-0.2,0.5-0.5,0.5c-0.3,0-0.5-0.2-0.5-0.5c0-0.3,0.2-0.5,0.5-0.5
		C219.6,32.7,219.8,33,219.8,33.2L219.8,33.2z"/>
	<path class="st6" d="M244.6,33.3c-0.1-0.1-0.5-0.3-0.9-0.5l-0.6,4.4c0,0.1-0.1,0.2-0.1,0.2l-0.9,0.6c0,0.1,0,0.2-0.1,0.3
		c0.9,0.2,1.8-0.4,2.2-0.9c0.2-0.9,0.4-1.9,0.5-2.7C244.8,33.7,244.7,33.4,244.6,33.3"/>
	<path class="st6" d="M230.6,50.2c-0.6-0.2-1.1-0.6-1.6-1c0,0-0.1-0.1-0.1-0.1c-0.4,0.1-0.7,0.1-1.1,0.2c-0.2,0-0.3,0-0.5,0l-0.2,0
		l-0.1,0c-0.6,0.8-1.5,1.3-2.3,1.5C226.9,51.2,229.3,50.6,230.6,50.2"/>
	<path class="st6" d="M211.2,39.3c0-0.1,0-0.1-0.1-0.2l-1.2-0.8c-0.1-0.1-0.1-0.1-0.1-0.2l-0.6-4.7c-0.4,0.2-0.9,0.5-1,0.6
		c-0.1,0.1-0.2,0.3-0.1,1.4c0.1,0.8,0.4,2.1,0.7,3.1C209.4,39,210.3,39.5,211.2,39.3"/>
	<path class="st7" d="M214.2,41.2C214.2,41.2,214.2,41.2,214.2,41.2L214.2,41.2C214.2,41.2,214.2,41.2,214.2,41.2"/>
	<path class="st7" d="M212.1,39.8C212.1,39.8,212.1,39.9,212.1,39.8C212.1,39.9,212.1,39.8,212.1,39.8L212.1,39.8"/>
	<path class="st6" d="M228.8,39.1c-0.1,0-0.2-0.1-0.3-0.2l-1.5-4.8c-0.2,0-0.5,0-0.6,0c-0.2,0-0.4,0-0.6,0l-1.4,4.7
		c0,0.1-0.1,0.2-0.2,0.2l-0.7,0.2c-0.1,0.2-0.3,0.6-0.9,0.8c-1,0.3-7.4,2.2-8.2,2.1c-0.4-0.1-1.2-0.5-1.8-0.9c-0.2-0.6-0.4-1-0.4-1
		v0l0,0c0.1,0.2,0.9,2.7,2.6,5c1.8-0.5,3.4-1,3.9-1.2c1-1.6,2.5-3.1,3.5-3.2c0.2,0,0.4,0,0.5,0c0.5,0,1,0,1.4,0.1
		c-0.4-0.3-0.5-0.8-0.5-0.9c0,0,1.3,1,3,0.8c1.7-0.2,2.7-1.2,2.7-1.2l0-0.3L228.8,39.1"/>
	<polyline class="st7" points="213.6,40.9 214,41.1 213.6,40.9 212.5,40.1 212.5,40.1 213.6,40.9 	"/>
	<path class="st6" d="M230.2,39.7c-0.3-0.1-0.6-0.2-0.7-0.4l0,0.2c0,0,0,0.7-0.7,1.3c1.4-0.4,2-0.6,2.4-0.6c0.4,0,0.7,0.2,0.8,0.3
		c0,0,0.1,0.1,0.1,0.1c1.1,0.9,2.4,1.9,2.8,2.2c0.4,0.1,1.8,0.2,2.7,0.3c0.5,0,1,0.1,1.4,0.1c0.1,0,0.3,0,0.4,0
		c0.5-0.9,0.9-1.9,1.3-3c-0.5,0.4-1.7,1.2-2.3,1.3C237.7,41.6,231.2,40,230.2,39.7"/>
	<path class="st7" d="M240.7,40.2c0-0.1,0.1-0.2,0.1-0.4C240.8,39.9,240.7,40,240.7,40.2"/>
	<path class="st7" d="M238.8,40.2C238.8,40.2,238.8,40.2,238.8,40.2C238.8,40.2,238.8,40.2,238.8,40.2"/>
	<path class="st8" d="M246.5,22.9c0-0.2,0-0.3,0-0.5c0-0.1,0-0.2,0-0.3c-0.4-0.3-0.9-0.7-1.4-0.9c-0.5-0.3-1.1-0.6-1.6-0.8
		c-0.6-0.3-1.1-0.5-1.7-0.7c-0.3-0.1-0.6-0.2-0.9-0.3c-0.3-0.1-0.6-0.2-0.9-0.3c0.6,0.1,1.2,0.2,1.8,0.4c0.4,0.1,0.8,0.2,1.2,0.3
		c-2.8-7.2-9.4-11.9-16.6-11.9c-7.2,0-13.8,4.7-16.6,11.9c0.4-0.1,0.8-0.2,1.2-0.3c0.6-0.2,1.2-0.3,1.8-0.4
		c-0.3,0.1-0.6,0.2-0.9,0.3c-0.3,0.1-0.6,0.2-0.9,0.3c-0.6,0.2-1.1,0.5-1.7,0.7c-0.6,0.3-1.1,0.5-1.6,0.8c-0.5,0.3-0.9,0.6-1.4,0.9
		c0,0.1,0,0.2,0,0.3c0,0.2,0,0.3,0,0.5c0,0.3,0,0.6,0,0.9c0,0.6,0,1.2,0.1,1.9c0.1,0.6,0.2,1.2,0.4,1.8c0.1,0.3,0.2,0.6,0.3,0.9
		c0.1,0.1,0.1,0.3,0.2,0.4c0,0.1,0.1,0.1,0.1,0.2l0,0.1c0,0,0.1,0,0.1,0.1l0.3,0.1c0.2,0.1,0.4,0.2,0.5,0.2l0,0l-0.5-1.9
		c0.1,0,1.1-0.3,2.7-0.6c-0.1,0-0.3-0.1-0.4-0.1c-0.4-0.1-0.8-0.2-1.1-0.4c-0.2-0.1-0.4-0.2-0.5-0.3c-0.2-0.1-0.3-0.2-0.5-0.4
		c1.8,0.6,5.6,0.3,9,0c3.1-0.3,6.2-0.5,9.3-0.5c3.1,0,6.2,0.2,9.3,0.5c3.4,0.3,7.2,0.6,9,0c-0.1,0.1-0.3,0.3-0.5,0.4
		c-0.2,0.1-0.3,0.2-0.5,0.3c-0.4,0.1-0.7,0.3-1.1,0.4c-0.1,0-0.1,0-0.2,0c1.8,0.3,2.9,0.6,3,0.6l-0.5,1.9c0.1,0,0.2-0.1,0.3-0.1
		l0.3-0.1c0,0,0.1,0,0.1-0.1l0-0.1c0-0.1,0.1-0.1,0.1-0.2c0.1-0.1,0.1-0.3,0.2-0.4c0.1-0.3,0.2-0.6,0.3-0.9c0.2-0.6,0.3-1.2,0.4-1.8
		c0.1-0.6,0.1-1.2,0.1-1.9C246.5,23.6,246.5,23.2,246.5,22.9L246.5,22.9z"/>
	<path class="st9" d="M233.9,19.3c0,0.8,0,2.3-0.4,3.7c0,0.1,0,0.1,0,0.2c-0.5-0.1-1-0.1-1.5-0.1c0.6-1.2,0.7-2.4,0.7-2.8
		C233.2,20,233.6,19.6,233.9,19.3L233.9,19.3z"/>
	<path class="st9" d="M219.9,20.3c0,0.4,0.1,1.7,0.7,2.8c-0.5,0-1,0.1-1.5,0.1c0,0,0-0.1,0-0.2c-0.4-1.4-0.4-2.9-0.4-3.7
		C219.1,19.6,219.5,20,219.9,20.3L219.9,20.3z"/>
	<path class="st10" d="M242.2,25.3L242.2,25.3L242.2,25.3z"/>
	<path class="st10" d="M240,24.4L240,24.4c0,0.1,0.1,0.1,0.2,0.1c0.5,0.1,0.9,0.3,1.3,0.5c-0.7-0.5-1.2-1.8-1.4-2.9
		C240.1,23.5,240,24.3,240,24.4L240,24.4z"/>
	<path class="st10" d="M242.1,25.3C242.1,25.3,242.2,25.3,242.1,25.3C242.2,25.3,242.1,25.3,242.1,25.3L242.1,25.3z"/>
	<path class="st10" d="M241.9,25.2c0.1,0,0.1,0.1,0.2,0.1C242,25.3,242,25.2,241.9,25.2L241.9,25.2z"/>
	<polygon class="st10" points="241.9,25.2 241.9,25.2 241.9,25.2 241.9,25.2 	"/>
	<path class="st10" d="M218.1,19.1l-4.7,1.3c-0.3,1.8-0.2,3.2-0.1,3.7l0,0c0,0,0.2-2,0.5-2.7c0.2-0.4,1.1-0.6,1.9-0.8
		c0.7-0.2,1.9-0.5,2.2,0.5c0.1,0.7,0.3,1.2,0.5,1.6C218.1,21.2,218.1,19.8,218.1,19.1L218.1,19.1z"/>
	<path class="st10" d="M234.6,19.1c0,0.7,0.1,2.2-0.3,3.7c0.2-0.4,0.4-1,0.6-1.8c0.2-1.1,1.4-0.7,2.2-0.5c0.7,0.2,1.7,0.4,1.9,0.8
		c0.3,0.6,0.4,2.2,0.5,2.6c0-0.6,0.1-1.9-0.2-3.6L234.6,19.1L234.6,19.1z"/>
	<path class="st10" d="M219.9,19.5c0.2,0.1,0.3,0.3,0.5,0.4c0.1,0.1,0.1,0.1,0.1,0.2c0,0,0,1.6,0.7,2.9c0,0,0,0,0,0.1
		c1.7-0.1,3.4-0.2,5.1-0.2c1.7,0,3.4,0.1,5.1,0.2c0,0,0,0,0-0.1c0.7-1.3,0.7-2.9,0.7-2.9c0-0.1,0.1-0.2,0.1-0.2
		c0.2-0.1,0.3-0.2,0.5-0.4l0-0.1c0.4-3.5-0.3-6.6-0.7-8.2c0,1.1-0.3,10.3-2.6,10.3c-2.4,0-2.9,0-2.9,0h-0.5c0,0-0.5,0-2.9,0
		c-2.4,0-2.6-10.4-2.6-10.4l-0.1,0.4C220.1,13.2,219.5,16.2,219.9,19.5L219.9,19.5z"/>
	<path class="st10" d="M233.7,17l0-0.1C233.7,16.9,233.7,17,233.7,17L233.7,17L233.7,17z"/>
	<path class="st10" d="M210.5,25.3L210.5,25.3L210.5,25.3z"/>
	<polygon class="st10" points="210.8,25.2 210.8,25.2 210.8,25.2 	"/>
	<path class="st10" d="M210.8,25.2c-0.1,0-0.1,0.1-0.2,0.1C210.6,25.3,210.7,25.2,210.8,25.2L210.8,25.2z"/>
	<path class="st10" d="M210.6,25.3C210.6,25.3,210.5,25.3,210.6,25.3C210.5,25.3,210.6,25.3,210.6,25.3L210.6,25.3z"/>
	<path class="st10" d="M212.7,24.4L212.7,24.4c0-0.1-0.1-1-0.1-2.3c-0.3,1-0.7,2.4-1.4,2.9c0.4-0.2,0.9-0.4,1.3-0.5
		C212.6,24.5,212.7,24.4,212.7,24.4L212.7,24.4z"/>
	<path class="st11" d="M243.2,39.1c-0.4,0-1-0.1-1.4-0.2c0.1-0.3,0.1-0.4,0.1-0.6l0,0c0,0,0,0,0,0c0.1,0,0.2,0,0.4,0c0,0,0,0,0,0
		l0,0l0,0c0,0,0,0,0,0c0.7,0,1.4-0.5,1.9-0.9c0,0,0,0,0,0c0,0,0,0,0,0c0,0,0,0,0,0c0,0,0,0,0,0c0,0,0,0,0,0c0,0,0,0,0,0c0,0,0,0,0,0
		c0,0,0,0,0,0c0,0,0,0,0,0c0,0,0,0,0,0l0,0c-0.2,0.8-0.4,1.4-0.6,1.6C243.5,39.1,243.4,39.1,243.2,39.1"/>
	<path class="st12" d="M242.3,38.4C242.3,38.4,242.3,38.4,242.3,38.4S242.3,38.4,242.3,38.4L242.3,38.4 M242.3,38.4
		c0.7,0,1.4-0.5,1.9-0.9C243.8,37.9,243.1,38.4,242.3,38.4 M242,38.4C242,38.4,242,38.4,242,38.4C242,38.4,242,38.4,242,38.4
		 M244.2,37.5C244.2,37.5,244.2,37.5,244.2,37.5C244.2,37.5,244.2,37.5,244.2,37.5 M244.2,37.5C244.2,37.5,244.2,37.5,244.2,37.5
		C244.2,37.5,244.2,37.5,244.2,37.5 M244.2,37.5C244.2,37.5,244.2,37.5,244.2,37.5C244.2,37.5,244.2,37.5,244.2,37.5 M244.2,37.5
		C244.2,37.5,244.2,37.5,244.2,37.5C244.2,37.5,244.2,37.5,244.2,37.5 M244.2,37.5C244.2,37.5,244.2,37.5,244.2,37.5
		C244.2,37.5,244.2,37.5,244.2,37.5"/>
	<path class="st11" d="M226.4,51.5c-1,0-2.1-0.1-3.1-0.4c0.1,0,0.2,0,0.3,0c0,0,0.5-0.1,1.1-0.3c0.5,0.1,1,0.1,1.5,0.1h0l0,0l0,0
		c0,0,0,0,0,0c1.7,0,3.3-0.4,4.3-0.7c0,0,0,0,0,0c0,0,0,0,0,0c0,0,0,0,0,0c0,0,0,0,0,0c0,0,0,0,0,0c0,0,0,0,0,0c0,0,0,0,0,0
		c0,0,0,0,0,0c0,0,0,0,0,0c0,0,0,0,0,0l0,0c0.4,0.1,0.7,0.2,1.1,0.2c-1.7,0.7-3.4,1-4.6,1.1C226.8,51.5,226.6,51.5,226.4,51.5"/>
	<path class="st12" d="M226.2,50.9L226.2,50.9L226.2,50.9L226.2,50.9 M226.2,50.9c1.7,0,3.3-0.4,4.3-0.7
		C229.5,50.5,227.9,50.9,226.2,50.9 M230.5,50.2C230.5,50.2,230.5,50.2,230.5,50.2C230.5,50.2,230.5,50.2,230.5,50.2 M230.5,50.2
		C230.5,50.2,230.5,50.2,230.5,50.2C230.5,50.2,230.5,50.2,230.5,50.2 M230.5,50.2C230.5,50.2,230.5,50.2,230.5,50.2
		C230.5,50.2,230.5,50.2,230.5,50.2 M230.5,50.2C230.5,50.2,230.6,50.2,230.5,50.2C230.6,50.2,230.5,50.2,230.5,50.2 M230.6,50.2
		C230.6,50.2,230.6,50.2,230.6,50.2C230.6,50.2,230.6,50.2,230.6,50.2"/>
	<path class="st11" d="M209.6,39.8c-0.1,0-0.2,0-0.3,0c-0.1-0.1-0.3-0.6-0.5-1.3l0,0c0,0,0,0,0,0c0.5,0.4,1.2,0.8,2,0.8c0,0,0,0,0,0
		l0,0l0,0c0,0,0,0,0,0c0.1,0,0.2,0,0.4,0c0,0,0,0,0,0c0,0.1,0.1,0.2,0.1,0.3C210.9,39.7,210.1,39.8,209.6,39.8"/>
	<path class="st12" d="M210.8,39.4C210.8,39.4,210.8,39.4,210.8,39.4C210.8,39.4,210.8,39.4,210.8,39.4L210.8,39.4 M210.8,39.4
		c0.1,0,0.2,0,0.4,0C211,39.3,210.9,39.4,210.8,39.4 M208.8,38.6C208.8,38.6,208.8,38.6,208.8,38.6
		C208.8,38.6,208.8,38.6,208.8,38.6"/>
	<path class="st11" d="M214.5,42L214.5,42C214.5,42,214.4,42,214.5,42L214.5,42c-0.5-0.1-1.3-0.5-1.9-0.9c-0.2-0.6-0.4-1-0.4-1v0
		l0,0c0-0.1-0.1-0.1-0.1-0.2l0,0l0,0c0,0,0,0,0-0.1l0.4,0.3v0v0l1.1,0.8l0.4,0.3c0.1,0,0.1,0.1,0.2,0.1h0h0c0,0,0,0,0,0c0,0,0,0,0,0
		l0,0l9.2-2.1c-0.1,0.2-0.3,0.6-0.9,0.8l0,0c0,0,0,0,0,0c0,0,0,0,0,0c0,0,0,0,0,0c0,0,0,0,0,0c0,0,0,0,0,0c0,0,0,0,0,0
		C221.5,40.2,215.5,42,214.5,42"/>
	<path class="st13" d="M214.2,41.2C214.2,41.2,214.2,41.2,214.2,41.2C214.2,41.2,214.2,41.2,214.2,41.2"/>
	<path class="st11" d="M238.3,41.5c-1.1,0-7.1-1.5-8.1-1.8c0,0,0,0,0,0c0,0,0,0,0,0c0,0,0,0,0,0c0,0,0,0,0,0c0,0,0,0,0,0
		c0,0,0,0,0,0c-0.3-0.1-0.6-0.2-0.7-0.4l0-0.1l9.3,1.1l0,0c0,0,0,0,0,0l0,0l0,0l0,0l0,0c0,0,0,0,0,0c0,0,0,0,0,0c0,0,0,0,0,0
		c0.1,0,0.1,0,0.2-0.1l0.9-0.7l0.9-0.6l0.3-0.2c-0.1,0.2-0.1,0.4-0.2,0.7c0,0.2-0.1,0.3-0.1,0.5l0,0l0,0c0,0.1-0.1,0.2-0.1,0.4l0,0
		l0,0l0,0l0,0l0,0c-0.5,0.4-1.7,1.2-2.3,1.3C238.4,41.5,238.3,41.5,238.3,41.5L238.3,41.5 M238.8,40.2
		C238.8,40.2,238.8,40.2,238.8,40.2C238.8,40.2,238.8,40.2,238.8,40.2L238.8,40.2 M238.8,40.2C238.8,40.2,238.8,40.2,238.8,40.2
		C238.8,40.2,238.8,40.2,238.8,40.2"/>
	<path class="st12" d="M238.3,41.5c-1.1,0-7.1-1.5-8.1-1.8C231.2,40,237.2,41.5,238.3,41.5L238.3,41.5 M238.3,41.5c0,0,0.1,0,0.1,0
		c0.6-0.1,1.7-0.9,2.3-1.3l0,0c-0.5,0.4-1.7,1.2-2.3,1.3C238.4,41.5,238.3,41.5,238.3,41.5 M230.2,39.7
		C230.2,39.7,230.2,39.7,230.2,39.7C230.2,39.7,230.2,39.7,230.2,39.7 M230.2,39.7C230.2,39.7,230.2,39.7,230.2,39.7
		C230.2,39.7,230.2,39.7,230.2,39.7 M230.2,39.7C230.2,39.7,230.2,39.7,230.2,39.7c-0.4-0.1-0.6-0.2-0.7-0.4l0,0
		C229.6,39.5,229.8,39.6,230.2,39.7C230.2,39.7,230.2,39.7,230.2,39.7"/>
	<path class="st13" d="M238.8,40.2L238.8,40.2L238.8,40.2L238.8,40.2L238.8,40.2 M238.8,40.2C238.8,40.2,238.8,40.2,238.8,40.2
		L238.8,40.2C238.8,40.2,238.8,40.2,238.8,40.2C238.8,40.2,238.8,40.2,238.8,40.2C238.8,40.2,238.8,40.2,238.8,40.2L238.8,40.2
		 M238.8,40.2C238.8,40.2,238.8,40.2,238.8,40.2C238.8,40.2,238.8,40.2,238.8,40.2"/>
	<path class="st14" d="M231.1,26.8c-0.1,0.1-0.2,0.2-0.2,0.3c-0.4,0.6-1.1,1.3-1.8,2c-0.8,0-1.7,0-2.6,0c-1.5,0-2.9,0-4.2,0.1
		c1.9-0.8,4.2-1.6,6.7-2C229.6,27,230.3,26.9,231.1,26.8L231.1,26.8z"/>
	<path class="st14" d="M220,27.7c-0.7,0.5-1.4,1.1-2.2,1.8c-1.9,0.2-3.6,0.4-4.9,0.6C215,29.2,217.4,28.3,220,27.7L220,27.7z"/>
	<path class="st14" d="M243.2,31.6l-0.8,5.4l-3.7,2.6l-9.7-1.1l-1.5-4.8c0-0.1-0.1-0.2-0.3-0.2c-0.4-0.1-0.7-0.1-0.9-0.1
		c-0.3,0-0.6,0-0.9,0.1c-0.1,0-0.2,0.1-0.3,0.2l-1.4,4.7l-9.6,2.1l-3.8-2.7l-0.8-6.1c0.2-0.1,0.3-0.2,0.5-0.3
		c0.2-0.1,0.5-0.1,0.8-0.2l0.7,5.7c0,0.1,0.1,0.2,0.1,0.2l2.6,1.8c0.1,0,0.1,0.1,0.2,0.1c0,0,0,0,0.1,0l7.9-1.8c0,0,0.1,0,0.1,0
		c0.1,0,0.1-0.1,0.2-0.2l1.4-4.7c0.4-0.1,1.4-0.3,2.2-0.3c0.9,0,1.8,0.2,2.2,0.3l1.4,4.7c0,0.1,0.1,0.2,0.3,0.2l7.9,0.9
		c0.1,0,0.2,0,0.2-0.1l2.6-1.8c0.1-0.1,0.1-0.1,0.1-0.2l0.7-4.9C242.4,31.4,242.9,31.5,243.2,31.6L243.2,31.6z"/>
	<path class="st14" d="M244.2,28.2l-0.7,2.6c-1.4-0.3-4.4-0.9-8.6-1.3c1.4-0.6,2.7-1.3,4-2.2C241.4,27.6,243.2,28,244.2,28.2
		L244.2,28.2z"/>
	<path class="st14" d="M208.8,28.2l0.2,0.7c0.5-0.4,1-0.8,1.4-1C209.7,28,209.2,28.1,208.8,28.2L208.8,28.2z"/>
	<path class="st15" d="M237.7,26.9L237.7,26.9c-0.5,0-0.9-0.1-1.4-0.1C236.8,26.8,237.2,26.9,237.7,26.9L237.7,26.9L237.7,26.9z"/>
	<path class="st15" d="M234.3,28.8c1-0.5,2.1-1,3.1-1.7C236.4,27.8,235.4,28.4,234.3,28.8L234.3,28.8z"/>
	<path class="st15" d="M235.4,26.8c-1-0.1-2.1-0.1-3.1-0.2c-0.1,0.1-0.2,0.3-0.4,0.5c-0.6,0.8-1.7,2.1-3.1,3.3
		c1.1-0.3,5.3-1.7,7.4-3.6C236,26.8,235.7,26.8,235.4,26.8L235.4,26.8z"/>
	<path class="st15" d="M223.6,27.7c-0.1,0-0.2,0.1-0.2,0.1C223.4,27.8,223.5,27.7,223.6,27.7L223.6,27.7z"/>
	<path class="st15" d="M224.1,27.6c-0.1,0-0.2,0.1-0.3,0.1C223.9,27.6,224,27.6,224.1,27.6L224.1,27.6z"/>
	<path class="st15" d="M223.1,27.9c-0.1,0-0.1,0-0.2,0.1C223,27.9,223.1,27.9,223.1,27.9L223.1,27.9z"/>
	<path class="st15" d="M222.7,28.1c-0.1,0-0.1,0-0.2,0.1C222.6,28.1,222.6,28.1,222.7,28.1L222.7,28.1z"/>
	<path class="st15" d="M224.6,27.4c-0.1,0-0.2,0.1-0.3,0.1C224.4,27.4,224.5,27.4,224.6,27.4L224.6,27.4z"/>
	<path class="st15" d="M226.3,26.9c-0.4,0.1-0.7,0.2-1.1,0.3C225.6,27.1,226,27,226.3,26.9L226.3,26.9z"/>
	<path class="st15" d="M225.2,27.2c-0.2,0.1-0.3,0.1-0.5,0.2C224.9,27.3,225.1,27.2,225.2,27.2L225.2,27.2z"/>
	<polygon class="st15" points="221.8,28.4 221.8,28.4 221.8,28.4 	"/>
	<path class="st15" d="M222.2,28.2c0,0-0.1,0-0.1,0C222.2,28.3,222.2,28.3,222.2,28.2L222.2,28.2z"/>
	<path class="st15" d="M227.8,26.5L227.8,26.5c-0.5,0-1.1,0-1.6,0h0c-0.8,0-1.6,0-2.3,0l-1.4,0.7l0,0c-0.2,0.1-2.1,1.1-3.9,2.7
		c0.2-0.1,0.3-0.2,0.5-0.3c1-0.7,3.5-2.2,7.6-3.2C227,26.5,227.4,26.5,227.8,26.5L227.8,26.5z"/>
	<path class="st15" d="M219,26.7c-0.7,0-1.3,0.1-2,0.1c-0.8,0-1.5,0.1-2.3,0.2c-0.4,0-0.8,0.1-1.1,0.1c-0.1,0-0.2,0-0.3,0
		c-1,0.6-4.8,3-7.5,6.1c0-0.1,0.1-0.1,0.1-0.2C210.8,28.9,216.1,27.3,219,26.7L219,26.7z"/>
	<path class="st15" d="M217.8,27.4c-5.3,1.6-9.5,4.1-12,5.8C208.3,31.5,212.5,28.9,217.8,27.4L217.8,27.4z"/>
	<path class="st15" d="M218.3,27.2c0.9-0.2,1.8-0.5,2.7-0.6l0,0C220.1,26.8,219.2,27,218.3,27.2L218.3,27.2z"/>
	<ellipse transform="matrix(0.5916 -0.8062 0.8062 0.5916 62.2348 212.2402)" class="st15" cx="240.6" cy="44.7" rx="0" ry="0"/>
	<path class="st15" d="M241.7,43.4C241.8,43.4,241.8,43.4,241.7,43.4C241.8,43.4,241.8,43.4,241.7,43.4L241.7,43.4z"/>
	<polygon class="st15" points="241.9,43.3 242,43.3 241.9,43.3 	"/>
	<path class="st15" d="M241.4,43.5c0,0,0.1,0,0.1-0.1C241.5,43.5,241.5,43.5,241.4,43.5L241.4,43.5z"/>
	<path class="st15" d="M241.3,43.6c0,0,0.1,0,0.1-0.1C241.4,43.6,241.3,43.6,241.3,43.6L241.3,43.6z"/>
	<path class="st15" d="M227.5,46.1L227.5,46.1C227.5,46.2,227.5,46.2,227.5,46.1C227.5,46.2,227.5,46.1,227.5,46.1L227.5,46.1z"/>
	<path class="st15" d="M241.6,43.5C241.6,43.5,241.6,43.4,241.6,43.5C241.6,43.4,241.6,43.5,241.6,43.5L241.6,43.5z"/>
	<polygon class="st15" points="241,43.7 241,43.7 241,43.7 241,43.7 	"/>
	<path class="st15" d="M241,43.7C241.1,43.7,241.1,43.7,241,43.7C241.1,43.7,241.1,43.7,241,43.7L241,43.7z"/>
	<path class="st15" d="M241.1,43.7c0,0,0.1,0,0.1-0.1C241.2,43.6,241.2,43.7,241.1,43.7L241.1,43.7z"/>
	<path class="st15" d="M241,43.7C241,43.8,241,43.8,241,43.7c-0.6,0.3-1.2,0.4-2,0.4c-0.5,0-1,0-1.5-0.1c-1.1-0.1-2.9-0.3-2.9-0.3
		l-0.1,0l-0.1-0.1c0,0-1.6-1.3-2.9-2.3c-0.1,0-0.1-0.1-0.1-0.1c-0.1-0.1-0.1-0.1-0.2-0.1c-0.4,0-1.6,0.4-4.2,1.2l-0.2,0.1l-0.2-0.1
		c0,0-1.7-0.6-3.8-0.6c-0.2,0-0.3,0-0.5,0c-0.2,0-1.4,0.6-2.8,2.9l-0.1,0.2l-0.2,0.1c0,0-2.6,0.8-5.3,1.6l-0.2,0l-0.2-0.1
		c0,0-1.1-0.5-2.1-1c0.1,0,0.1,0.1,0.2,0.1c1,0.9,2.9,2.5,3.1,2.7c0,0,0.1,0.1,0.1,0.1c0-0.1-0.1-0.1-0.1-0.2l0,0l0,0l0,0
		c0.4,0.4,0.9,0.8,1.5,1c0.3,0.1,0.5,0.2,0.8,0.3c0.1,0,0.3,0,0.4,0c0.1,0,0.3,0,0.4,0c0.6,0,1.2-0.1,1.8-0.1
		c0.6-0.1,1.2-0.1,1.8-0.2c0.6-0.1,1.2-0.1,1.8-0.2c0.3,0,0.6-0.1,0.9-0.2c0.1,0,0.3-0.1,0.4-0.1c0.1,0,0.2-0.1,0.3-0.2
		c0.2-0.2,0.4-0.4,0.6-0.6c0.2-0.2,0.4-0.4,0.6-0.6c0.3-0.4,0.6-0.8,1-1.1c0,0,0.1-0.1,0.1-0.1l0,0l0,0c0.1,0.1,0.1,0.1,0.2,0.2
		c0.4,0.3,0.8,0.6,1.2,0.9c0.5,0.4,1.1,0.7,1.6,1c0.1,0.1,0.3,0.1,0.4,0.2l0,0l0,0c0,0,0.1,0,0.1,0c0.1,0,0.1,0,0.2,0
		c0.3,0,0.6-0.1,0.9-0.1c0.6-0.1,1.3-0.2,1.9-0.3c0.6-0.1,1.2-0.2,1.9-0.4c0.6-0.1,1.2-0.3,1.9-0.4c0.3-0.1,0.6-0.2,0.9-0.3
		c0.3-0.1,0.5-0.3,0.8-0.5c0.5-0.4,0.9-0.9,1.2-1.5l0,0C240.8,44.3,240.9,44,241,43.7L241,43.7z"/>
	<polygon class="st15" points="229.4,14.3 230.5,14.3 230.5,12.1 229.3,12.1 227.1,12.1 222.4,12.1 222.4,14.3 223.5,14.3 
		223.5,13.2 225.8,13.2 225.8,20.1 224.8,20.1 224.8,21.4 228,21.4 228,20.1 227.1,20.1 227.1,13.2 229.4,13.2 229.4,14.3 	"/>
	<path class="st16" d="M234.3,28.8c-2.1,0.9-4.2,1.4-5.5,1.7C230.2,30.2,232.2,29.8,234.3,28.8L234.3,28.8z"/>
	<path class="st16" d="M228.9,30.4C228.9,30.5,228.8,30.5,228.9,30.4C228.8,30.5,228.9,30.5,228.9,30.4L228.9,30.4z"/>
	<polygon class="st16" points="236.3,26.8 236.3,26.8 236.3,26.8 236.3,26.8 	"/>
	<path class="st16" d="M237.7,26.9c-0.1,0.1-0.2,0.1-0.2,0.2C237.5,27,237.6,27,237.7,26.9L237.7,26.9z"/>
	<path class="st16" d="M237.7,26.9L237.7,26.9c-0.5,0-0.9-0.1-1.4-0.1l0,0c-2.1,1.9-6.3,3.3-7.4,3.6c0,0,0,0-0.1,0.1
		c1.4-0.2,3.4-0.7,5.5-1.7c1-0.5,2.1-1,3.1-1.7C237.5,27,237.6,27,237.7,26.9L237.7,26.9z"/>
	<path class="st16" d="M219.1,29.7c0.8-0.4,1.7-0.8,2.7-1.3C220.8,28.9,219.8,29.3,219.1,29.7L219.1,29.7L219.1,29.7z"/>
	<path class="st16" d="M224.3,27.5c-0.1,0-0.1,0-0.2,0.1C224.1,27.5,224.2,27.5,224.3,27.5L224.3,27.5z"/>
	<path class="st16" d="M227.8,26.5c-0.5,0.1-1,0.2-1.5,0.4C226.8,26.7,227.3,26.6,227.8,26.5L227.8,26.5L227.8,26.5z"/>
	<path class="st16" d="M224.8,27.3c-0.1,0-0.1,0-0.2,0.1C224.6,27.4,224.7,27.3,224.8,27.3L224.8,27.3z"/>
	<path class="st16" d="M223.4,27.8c-0.1,0-0.2,0.1-0.2,0.1C223.2,27.9,223.3,27.8,223.4,27.8L223.4,27.8z"/>
	<path class="st16" d="M222.9,28c-0.1,0-0.2,0.1-0.3,0.1C222.8,28,222.8,28,222.9,28L222.9,28z"/>
	<path class="st16" d="M222.5,28.1c-0.1,0-0.2,0.1-0.3,0.1C222.3,28.2,222.4,28.2,222.5,28.1L222.5,28.1z"/>
	<path class="st16" d="M222.1,28.3c-0.1,0-0.2,0.1-0.3,0.1C221.9,28.4,222,28.3,222.1,28.3L222.1,28.3z"/>
	<path class="st16" d="M223.8,27.6c-0.1,0-0.1,0.1-0.2,0.1C223.7,27.7,223.7,27.7,223.8,27.6L223.8,27.6z"/>
	<path class="st16" d="M226.6,26.5c-4,1-6.6,2.6-7.6,3.2c0.8-0.4,1.7-0.8,2.7-1.3l0,0c0.1,0,0.2-0.1,0.3-0.1c0,0,0.1,0,0.1,0
		c0.1,0,0.2-0.1,0.3-0.1c0.1,0,0.1,0,0.2-0.1c0.1,0,0.2-0.1,0.3-0.1c0.1,0,0.1,0,0.2-0.1c0.1,0,0.2-0.1,0.2-0.1
		c0.1,0,0.2-0.1,0.2-0.1c0.1,0,0.1-0.1,0.2-0.1c0.1,0,0.2-0.1,0.3-0.1c0.1,0,0.1,0,0.2-0.1c0.1,0,0.2-0.1,0.3-0.1
		c0.1,0,0.1,0,0.2-0.1c0.2-0.1,0.3-0.1,0.5-0.2c0.4-0.1,0.7-0.2,1.1-0.3c0.5-0.1,1-0.3,1.5-0.4C227.4,26.5,227,26.5,226.6,26.5
		L226.6,26.5z"/>
	<path class="st16" d="M221,26.6c-0.7,0-1.3,0.1-2,0.1l0,0C219.7,26.6,220.3,26.6,221,26.6L221,26.6L221,26.6z"/>
	<path class="st16" d="M219,26.7c-2.9,0.6-8.2,2.2-13.1,6.4c0,0.1-0.1,0.1-0.1,0.2c2.5-1.7,6.7-4.3,12-5.8c0.2,0,0.3-0.1,0.5-0.1
		c0.9-0.2,1.8-0.5,2.7-0.6C220.3,26.6,219.7,26.6,219,26.7L219,26.7z"/>
	<polygon class="st16" points="241.3,43.6 241.3,43.6 241.3,43.6 	"/>
	<path class="st16" d="M241.9,43.6c0-0.1,0.1-0.2,0.1-0.2l0,0C242,43.4,242,43.5,241.9,43.6L241.9,43.6z"/>
	<polygon class="st16" points="241.4,43.6 241.4,43.5 241.4,43.6 	"/>
	<polygon class="st16" points="227.5,46.1 227.8,46.5 227.5,46.1 227.5,46.1 	"/>
	<path class="st16" d="M241.9,43.6c-0.3,0.5-0.6,1.1-0.9,1.7C241.4,44.7,241.7,44.1,241.9,43.6L241.9,43.6z"/>
	<path class="st16" d="M237.7,48.2c-0.2,0-0.3,0.1-0.4,0.1C237.4,48.3,237.5,48.2,237.7,48.2L237.7,48.2z"/>
	<path class="st16" d="M237.7,48.2c0.9-0.2,2.1-0.5,2.8-1.8C239.8,47.7,238.6,48,237.7,48.2L237.7,48.2z"/>
	<ellipse transform="matrix(0.7098 -0.7044 0.7044 0.7098 38.3375 182.4485)" class="st16" cx="240.6" cy="44.7" rx="0" ry="0"/>
	<path class="st16" d="M241.1,45.2c-0.2,0.4-0.4,0.8-0.6,1.2C240.7,46,240.9,45.6,241.1,45.2L241.1,45.2z"/>
	<path class="st16" d="M241.8,43.4c0,0,0.1,0,0.1,0C241.9,43.3,241.9,43.3,241.8,43.4L241.8,43.4z"/>
	<path class="st16" d="M227.9,46.6c0.2,0.2,0.9,1,1.8,1.9c0.7,0.7,1.5,1,2.4,1c-0.9,0-1.7-0.3-2.4-1
		C228.8,47.6,228.1,46.8,227.9,46.6L227.9,46.6z"/>
	<polygon class="st16" points="241.5,43.5 241.6,43.5 241.5,43.5 	"/>
	<path class="st16" d="M242,43.3c0.1,0,0.1,0,0.2-0.1C242.1,43.2,242,43.3,242,43.3L242,43.3z"/>
	<path class="st16" d="M241.7,43.4C241.7,43.4,241.7,43.4,241.7,43.4C241.7,43.4,241.7,43.4,241.7,43.4L241.7,43.4z"/>
	<path class="st16" d="M233,49.4c0.3-0.1,0.6-0.2,1-0.2c1-0.2,2.1-0.5,2.9-0.7c-0.7,0.2-1.9,0.5-2.9,0.7
		C233.6,49.2,233.3,49.3,233,49.4L233,49.4z"/>
	<path class="st16" d="M242,43.3L242,43.3c-0.1,0-0.1,0.1-0.2,0.1c0,0-0.1,0-0.1,0c0,0,0,0-0.1,0c0,0-0.1,0-0.1,0l0,0
		c0,0-0.1,0-0.1,0.1l0,0c0,0-0.1,0-0.1,0.1l0,0c-0.1,0-0.2,0.1-0.2,0.1c-0.1,0.2-0.2,0.6-0.4,1l0,0l0,0l0,0
		c-0.3,0.6-0.7,1.1-1.2,1.5c-0.2,0.2-0.5,0.4-0.8,0.5c-0.3,0.1-0.6,0.2-0.9,0.3c-0.6,0.2-1.2,0.3-1.9,0.4c-0.6,0.1-1.2,0.3-1.9,0.4
		c-0.6,0.1-1.3,0.2-1.9,0.3c-0.3,0-0.6,0.1-0.9,0.1c-0.1,0-0.2,0-0.2,0c0,0-0.1,0-0.1,0l0,0l0,0c-0.1,0-0.3-0.1-0.4-0.2
		c-0.5-0.3-1.1-0.7-1.6-1c-0.4-0.3-0.8-0.6-1.2-0.9l0,0.1l0,0c0,0,0.1,0,0.1,0.1l0,0c0,0,0,0-0.1,0l0.3,0.4c0,0,0,0,0,0
		c0.2,0.2,0.9,1,1.8,1.9c0.7,0.7,1.5,1,2.4,1c0.3,0,0.6,0,1-0.1c0.3-0.1,0.6-0.2,1-0.2c1-0.2,2.1-0.5,2.9-0.7c0,0,0.1,0,0.1,0
		c0.1,0,0.2-0.1,0.3-0.1c0.1,0,0.3-0.1,0.4-0.1c0.9-0.2,2.1-0.5,2.8-1.8c0.2-0.4,0.4-0.8,0.6-1.2c0.3-0.6,0.6-1.1,0.9-1.7
		C242,43.5,242,43.4,242,43.3L242,43.3c0.1,0,0.1,0,0.2-0.1C242.1,43.2,242,43.3,242,43.3L242,43.3z"/>
	<path class="st16" d="M211.5,45.4c0.2,0.3,0.4,0.5,0.6,0.8C211.9,46,211.7,45.7,211.5,45.4L211.5,45.4L211.5,45.4z"/>
	<ellipse transform="matrix(0.8944 -0.4472 0.4472 0.8944 3.3724 106.4863)" class="st16" cx="227.2" cy="46.1" rx="0" ry="0"/>
	<polygon class="st16" points="227.2,46.1 227.2,46.1 227,46.7 227.2,46.1 	"/>
	<path class="st16" d="M213,47.5c-0.3-0.4-0.6-0.8-0.9-1.3C212.3,46.7,212.7,47.1,213,47.5L213,47.5z"/>
	<path class="st16" d="M218.4,50.7c0.3,0,0.7,0,1-0.1C219.1,50.7,218.7,50.7,218.4,50.7L218.4,50.7L218.4,50.7z"/>
	<path class="st16" d="M213.4,48c-0.1-0.2-0.3-0.3-0.4-0.5C213.1,47.7,213.2,47.8,213.4,48c1.1,1.4,2.4,2.7,5,2.7h0
		C215.8,50.7,214.4,49.4,213.4,48L213.4,48z"/>
	<path class="st16" d="M225,49.6c0.5-0.3,1-0.6,1.3-1.2c0.6-1.4,0.8-1.7,0.8-1.7c0,0-0.1,0.3-0.8,1.7C226,49,225.5,49.4,225,49.6
		L225,49.6z"/>
	<path class="st16" d="M223.4,50.1c0,0,0.1,0,0.1,0c0,0,0.8-0.1,1.5-0.5C224.2,50,223.5,50.1,223.4,50.1
		C223.4,50.1,223.4,50.1,223.4,50.1L223.4,50.1z"/>
	<path class="st16" d="M219.9,50.6c2.3-0.3,2.9-0.4,3.2-0.4c0.1,0,0.2,0,0.2,0c-0.1,0-0.2,0-0.2,0C222.8,50.2,222.1,50.3,219.9,50.6
		L219.9,50.6z"/>
	<ellipse transform="matrix(0.8944 -0.4472 0.4472 0.8944 1.1259 101.1416)" class="st16" cx="214.8" cy="48.2" rx="0" ry="0"/>
	<path class="st16" d="M227.2,46.1L227.2,46.1c-0.4,0.3-0.7,0.7-1,1.1c-0.2,0.2-0.4,0.4-0.6,0.6c-0.2,0.2-0.4,0.4-0.6,0.6
		c-0.1,0.1-0.2,0.2-0.3,0.2c-0.1,0.1-0.3,0.1-0.4,0.1c-0.3,0.1-0.6,0.1-0.9,0.2c-0.6,0.1-1.2,0.2-1.8,0.2c-0.6,0.1-1.2,0.1-1.8,0.2
		c-0.6,0.1-1.2,0.1-1.8,0.1c-0.1,0-0.3,0-0.4,0c-0.1,0-0.3,0-0.4,0c-0.3,0-0.6-0.1-0.8-0.3c-0.5-0.3-1-0.6-1.5-1l0,0
		c0.1,0.1,0.1,0.1,0.2,0.2l0,0c0,0-0.1-0.1-0.1-0.1c-0.2-0.2-2.1-1.9-3.1-2.7c-0.1,0-0.1-0.1-0.2-0.1c0.2,0.3,0.4,0.5,0.6,0.8
		c0.3,0.4,0.6,0.8,0.9,1.3c0.1,0.2,0.3,0.4,0.4,0.5c1.1,1.4,2.4,2.7,5,2.7c0.3,0,0.7,0,1-0.1c0.1,0,0.2,0,0.2,0c0.1,0,0.2,0,0.2,0
		c2.3-0.3,2.9-0.4,3.2-0.4c0.1,0,0.2,0,0.2,0c0,0,0.1,0,0.1,0c0,0,0.8-0.1,1.5-0.5c0.5-0.3,1-0.6,1.3-1.2c0.6-1.4,0.8-1.7,0.8-1.7
		L227.2,46.1L227.2,46.1L227.2,46.1z"/>
	<path class="st17" d="M227.9,46.6c0.2,0.2,0.9,1,1.8,1.9c0.7,0.7,1.5,1,2.4,1c-0.9,0-1.7-0.3-2.4-1
		C228.8,47.6,228.1,46.8,227.9,46.6L227.9,46.6z"/>
	<path class="st17" d="M213,47.5c-0.3-0.4-0.6-0.8-0.9-1.3C212.3,46.7,212.7,47.1,213,47.5L213,47.5z"/>
	<path class="st17" d="M225,49.6c0.5-0.3,1-0.6,1.3-1.2c0.6-1.4,0.8-1.7,0.8-1.7c0,0-0.1,0.3-0.8,1.7C226,49,225.5,49.4,225,49.6
		L225,49.6z"/>
	<polygon class="st17" points="227.5,46.1 227.8,46.5 227.5,46.1 227.5,46.1 	"/>
	<path class="st17" d="M218.4,50.7c0.3,0,0.7,0,1-0.1C219.1,50.7,218.7,50.7,218.4,50.7L218.4,50.7L218.4,50.7z"/>
	<path class="st17" d="M233,49.4c0.3-0.1,0.6-0.2,1-0.2c1.1-0.3,2.3-0.5,3-0.7c-0.7,0.2-1.9,0.5-3,0.7
		C233.6,49.2,233.3,49.3,233,49.4L233,49.4z"/>
	<path class="st17" d="M219.7,50.6c2.4-0.3,3.1-0.4,3.5-0.5c0.1,0,0.2,0,0.2,0c-0.1,0-0.2,0-0.2,0C222.8,50.2,222.1,50.3,219.7,50.6
		L219.7,50.6z"/>
	<path class="st17" d="M241.9,43.6c-0.3,0.5-0.6,1.1-0.9,1.7C241.4,44.7,241.7,44.1,241.9,43.6L241.9,43.6z"/>
	<ellipse transform="matrix(0.8944 -0.4472 0.4472 0.8944 3.3724 106.4863)" class="st17" cx="227.2" cy="46.1" rx="0" ry="0"/>
	<path class="st17" d="M233.4,33.4c0.3,0,0.5-0.2,0.5-0.5c0-0.3-0.2-0.5-0.5-0.5c-0.3,0-0.5,0.2-0.5,0.5
		C232.8,33.2,233.1,33.4,233.4,33.4L233.4,33.4z M236.4,35.6c-0.7-0.3-1.4,0.1-2.7,0.1c-1,0-1.8,0-1.9-1.5c-0.1-1.5,0.6-2.8,1.6-2.9
		c1,0,1.9,1.2,2,2.7c0,0.4,0,0.7-0.1,1C236.2,35,236.4,35.6,236.4,35.6L236.4,35.6z"/>
	<path class="st17" d="M219.3,33.8c0.3,0,0.5-0.2,0.5-0.5c0-0.3-0.2-0.5-0.5-0.5c-0.3,0-0.5,0.2-0.5,0.5
		C218.8,33.5,219,33.8,219.3,33.8L219.3,33.8z M220.8,34.6c0,1.5-0.8,1.4-1.8,1.5c-0.1,0-0.2,0-0.3,0c-0.1,0-0.2,0-0.3,0
		c-1,0-1.6,0-2.1,0.2c0,0,0.2-0.6,1.1-0.8c-0.1-0.2-0.2-0.5-0.2-0.9c-0.1-1.5,0.9-2.8,1.9-2.8C220.1,31.8,220.8,33,220.8,34.6
		L220.8,34.6z"/>
	<path class="st17" d="M241.6,25.1c0,0,0.1,0,0.2,0.1c0,0,0.1,0,0.1,0.1c-0.1-0.1-0.3-0.2-0.4-0.2C241.5,25,241.6,25,241.6,25.1
		L241.6,25.1L241.6,25.1z"/>
	<path class="st17" d="M211.1,25.1L211.1,25.1c0,0,0.1,0,0.1-0.1c-0.1,0.1-0.3,0.1-0.4,0.2c0,0,0.1,0,0.1,0
		C211,25.1,211.1,25.1,211.1,25.1L211.1,25.1z"/>
	<path class="st17" d="M239.4,24c0,0.1,0,0.2,0,0.3c-0.4-0.1-0.8-0.2-1.2-0.3c-1.3-0.3-2.6-0.5-3.9-0.6c0,0-0.1,0-0.1,0
		c0,0,0,0,0-0.1c0-0.1,0.1-0.3,0.1-0.4c0.3-1.5,0.3-3,0.3-3.7l4.7,1.3C239.5,22.1,239.4,23.4,239.4,24L239.4,24z M233.6,23.1
		c0,0.1,0,0.1,0,0.2c-0.5-0.1-1-0.1-1.5-0.1c0.6-1.2,0.7-2.4,0.7-2.8c0.4-0.3,0.8-0.7,1.2-0.9C234,20.2,234,21.7,233.6,23.1
		L233.6,23.1z M219.1,23.2c0,0,0-0.1,0-0.2c-0.4-1.4-0.4-2.9-0.4-3.7c0.3,0.3,0.7,0.6,1.2,0.9c0,0.4,0.1,1.7,0.7,2.8
		C220.1,23.1,219.6,23.2,219.1,23.2L219.1,23.2z M218.4,23.3c-0.7,0.1-1.3,0.2-2,0.3c-0.7,0.1-1.3,0.2-2,0.4
		c-0.4,0.1-0.8,0.2-1.2,0.3c0,0,0-0.1,0-0.1c0-0.5-0.1-1.9,0.1-3.7l4.7-1.3c0,0.7-0.1,2.1,0.2,3.6c0,0.2,0.1,0.4,0.1,0.6
		c0,0,0,0,0,0.1C218.5,23.3,218.5,23.3,218.4,23.3L218.4,23.3z M241.9,25.2c0,0-0.1,0-0.1-0.1c-0.1,0-0.1-0.1-0.2-0.1l0,0
		c0,0-0.1,0-0.1-0.1c-0.4-0.2-0.9-0.4-1.3-0.5c-0.1,0-0.1,0-0.2,0l0,0c0-0.1,0.1-0.9,0.1-2.3c0-0.6-0.1-1.3-0.2-2
		c0-0.1-0.1-0.2-0.2-0.2l-0.7-0.2c-0.1-5.2-2.3-7.6-2.3-7.7c1.9,3.1,1.9,6.7,1.9,7.5l-4.1-1.2l0,0l-0.1,0l0,0c0,0,0,0-0.1,0l0,0
		c0,0,0,0-0.1,0l0,0l0,0l0,0l0,0l0,0c0,0-0.1,0.1-0.3,0.3c0-0.4,0-1,0-1.7c0-0.1,0-0.1,0-0.2c-0.1-1.8-0.6-4.4-1.8-6.6
		c0,0,0.1,0.4,0.3,1c0.4,1.6,1.1,4.8,0.7,8.2l0,0l0,0c-0.2,0.1-0.3,0.3-0.5,0.4c-0.1,0.1-0.1,0.1-0.1,0.2c0,0,0,1.6-0.7,2.9
		c0,0,0,0,0,0.1c-1.7-0.1-3.4-0.2-5.1-0.2c-1.7,0-3.4,0-5.1,0.2c0,0,0,0,0-0.1c-0.7-1.3-0.7-2.9-0.7-2.9c0-0.1-0.1-0.2-0.1-0.2
		c-0.2-0.1-0.3-0.2-0.5-0.4c-0.3-3.3,0.2-6.3,0.6-8c0.2-0.8,0.4-1.3,0.4-1.3c-1.9,3.2-1.9,7.2-1.9,8.5c-0.2-0.2-0.3-0.3-0.3-0.3l0,0
		l0,0l0,0l0,0l0,0l-0.1,0l0,0c0,0,0,0-0.1,0l0,0l-0.1,0l0,0l-4.1,1.2c0-0.8-0.1-4.5,1.9-7.5c-0.1,0.1-2.2,2.5-2.3,7.7l-0.7,0.2
		c-0.1,0-0.2,0.1-0.2,0.2c-0.1,0.7-0.2,1.4-0.2,2c-0.1,1.4,0,2.2,0.1,2.3l0,0c-0.1,0-0.1,0-0.2,0c-0.5,0.1-0.9,0.3-1.3,0.5
		c0,0-0.1,0-0.1,0.1l0,0c-0.1,0-0.1,0.1-0.2,0.1c0,0-0.1,0-0.1,0c0,0,0,0-0.1,0c0.3-0.1,0.6-0.2,0.9-0.3c0.3-0.1,0.6-0.1,1-0.2
		c0.6-0.1,1.3-0.2,1.9-0.3c0.6-0.1,1.3-0.2,2-0.2c0.7-0.1,1.3-0.1,2-0.1c2.6-0.2,5.2-0.2,7.9-0.2c2.6,0,5.2,0,7.9,0.2
		c0.7,0,1.3,0.1,2,0.1c0.7,0.1,1.3,0.1,2,0.2c0.7,0.1,1.3,0.2,1.9,0.3c0.3,0.1,0.6,0.1,1,0.2C241.3,25,241.7,25.1,241.9,25.2
		L241.9,25.2L241.9,25.2z"/>
	<path class="st17" d="M210.8,25.2L210.8,25.2c0,0,0.1,0,0.1,0C210.9,25.2,210.8,25.2,210.8,25.2L210.8,25.2z"/>
	<polygon class="st17" points="211.1,25 211.1,25.1 211.1,25 	"/>
	<path class="st17" d="M211.1,25.1c0,0-0.1,0-0.2,0.1C211,25.1,211,25.1,211.1,25.1L211.1,25.1z"/>
	<path class="st17" d="M241.9,25.2L241.9,25.2c0,0-0.1,0-0.1-0.1C241.8,25.2,241.9,25.2,241.9,25.2L241.9,25.2z"/>
	<path class="st17" d="M241.8,25.1c-0.1,0-0.2-0.1-0.2-0.1C241.7,25.1,241.7,25.1,241.8,25.1L241.8,25.1z"/>
	<polygon class="st17" points="241.6,25.1 241.6,25 241.6,25.1 	"/>
	<path class="st17" d="M227.1,13.2v6.9h0.9v1.3h-3.2v-1.3h0.9v-6.9h-2.3v1.1h-1.1v-2.2h4.7h2.2h1.2v2.2h-1.1v-1.1H227.1L227.1,13.2z
		 M231.3,15.2v-3.9h-9.7v3.9h2.8V14h0.6v5.2H224v2.9h4.8v-2.9h-0.9V14h0.6v1.1H231.3L231.3,15.2z"/>
	<rect x="227.5" y="46.1" class="st17" width="0" height="0"/>
	<path class="st17" d="M227.3,46c0,0,0.1,0.1,0.2,0.2l0,0l0-0.1C227.4,46,227.4,46,227.3,46L227.3,46L227.3,46c0,0-0.1,0-0.1,0.1
		l0,0C227.3,46,227.3,46,227.3,46L227.3,46z"/>
	<g>
		<defs>
			<rect id="SVGID_1_" x="201.8" y="6.9" width="45.7" height="45.3"/>
		</defs>
		<clipPath id="SVGID_2_">
			<use xlink:href="#SVGID_1_"  style="overflow:visible;"/>
		</clipPath>
		<polygon class="st18" points="227.5,46.1 227.5,46.1 227.5,46.1 227.5,46.1 227.5,46.1 		"/>
		<path class="st18" d="M246.4,25.7c-0.1,0.6-0.2,1.2-0.4,1.8c-0.1,0.3-0.2,0.6-0.3,0.9c-0.1,0.1-0.1,0.3-0.2,0.4
			c0,0.1-0.1,0.1-0.1,0.2l0,0.1c0,0-0.1,0-0.1,0.1l-0.3,0.1c-0.1,0-0.2,0.1-0.3,0.1l0.5-1.9c-0.1,0-1.2-0.3-3-0.6c0.1,0,0.1,0,0.2,0
			c0.4-0.1,0.8-0.2,1.1-0.4c0.2-0.1,0.4-0.2,0.5-0.3c0.2-0.1,0.3-0.2,0.5-0.4c-1.8,0.6-5.6,0.3-9,0c-3.1-0.3-6.2-0.5-9.3-0.5
			c-3.1,0-6.2,0.2-9.3,0.5c-3.4,0.3-7.2,0.6-9,0c0.1,0.1,0.3,0.3,0.5,0.4c0.2,0.1,0.3,0.2,0.5,0.3c0.4,0.1,0.7,0.3,1.1,0.4
			c0.1,0,0.3,0.1,0.4,0.1c-1.7,0.3-2.6,0.6-2.7,0.6l0.5,1.9l0,0c-0.2-0.1-0.4-0.2-0.5-0.2l-0.3-0.1c0,0-0.1,0-0.1-0.1l0-0.1
			c0-0.1-0.1-0.1-0.1-0.2c-0.1-0.1-0.1-0.3-0.2-0.4c-0.1-0.3-0.2-0.6-0.3-0.9c-0.2-0.6-0.3-1.2-0.4-1.8c-0.1-0.6-0.1-1.2-0.1-1.9
			c0-0.3,0-0.6,0-0.9c0-0.2,0-0.3,0-0.5c0-0.1,0-0.2,0-0.3c0.4-0.3,0.9-0.7,1.4-0.9c0.5-0.3,1.1-0.6,1.6-0.8
			c0.6-0.3,1.1-0.5,1.7-0.7c0.3-0.1,0.6-0.2,0.9-0.3c0.3-0.1,0.6-0.2,0.9-0.3c-0.6,0.1-1.2,0.2-1.8,0.4c-0.4,0.1-0.8,0.2-1.2,0.3
			c2.8-7.2,9.4-11.9,16.6-11.9c7.2,0,13.8,4.7,16.6,11.9c-0.4-0.1-0.8-0.2-1.2-0.3c-0.6-0.2-1.2-0.3-1.8-0.4
			c0.3,0.1,0.6,0.2,0.9,0.3c0.3,0.1,0.6,0.2,0.9,0.3c0.6,0.2,1.1,0.5,1.7,0.7c0.6,0.3,1.1,0.5,1.6,0.8c0.5,0.3,1,0.6,1.4,0.9
			c0,0.1,0,0.2,0,0.3c0,0.2,0,0.3,0,0.5c0,0.3,0,0.6,0,0.9C246.5,24.5,246.5,25.1,246.4,25.7L246.4,25.7z M243.5,30.8
			c-1.4-0.3-4.4-0.9-8.6-1.3c1.4-0.6,2.7-1.3,4-2.2c2.5,0.4,4.3,0.7,5.3,0.9L243.5,30.8L243.5,30.8z M244.6,33.3
			c0.1,0.1,0.2,0.3,0.1,1.5c-0.1,1.4-0.7,3.9-1.1,4.3c-0.4,0.1-1.3,0-1.8-0.1c0.1-0.4,0.1-0.5,0.2-0.9l0.9-0.6
			c0.1-0.1,0.1-0.1,0.1-0.2l0.6-4.4C244.1,33,244.5,33.2,244.6,33.3L244.6,33.3z M238.7,39.6l-9.7-1.1l-1.5-4.8
			c0-0.1-0.1-0.2-0.3-0.2c-0.4-0.1-0.7-0.1-0.9-0.1c-0.3,0-0.6,0-0.9,0.1c-0.1,0-0.2,0.1-0.3,0.2l-1.4,4.7l-9.6,2.1l-3.8-2.7
			l-0.8-6.1c0.2-0.1,0.3-0.2,0.5-0.3c0.2,0,0.5-0.1,0.8-0.2l0.7,5.7c0,0.1,0.1,0.2,0.1,0.2l2.6,1.8c0.1,0,0.1,0.1,0.2,0.1
			c0,0,0,0,0.1,0l7.9-1.8c0,0,0.1,0,0.1,0c0.1,0,0.1-0.1,0.2-0.2l1.4-4.7c0.4-0.1,1.4-0.3,2.2-0.3c0.9,0,1.8,0.2,2.2,0.3l1.4,4.7
			c0,0.1,0.1,0.2,0.3,0.2l7.9,0.9c0.1,0,0.2,0,0.2-0.1l2.6-1.8c0.1-0.1,0.1-0.1,0.1-0.2l0.7-4.9c0.5,0.1,1,0.2,1.3,0.3l-0.8,5.4
			L238.7,39.6L238.7,39.6z M240.9,39.4c-0.1,0.3-0.2,0.6-0.3,0.8c-0.4,1.1-0.8,2.1-1.3,3c-0.1,0-0.3,0-0.4,0c-0.5,0-0.9,0-1.4-0.1
			c-0.9-0.1-2.3-0.2-2.7-0.3c-0.4-0.3-1.7-1.3-2.8-2.2c0,0-0.1-0.1-0.1-0.1c-0.2-0.2-0.4-0.3-0.8-0.3c-0.4,0-1,0.1-2.4,0.6
			c0.7-0.5,0.7-1.3,0.7-1.3s-1,1-2.7,1.2c-1.7,0.2-3-0.8-3-0.8c0.1,0.2,0.1,0.6,0.5,0.9c-0.4-0.1-0.9-0.1-1.4-0.1
			c-0.2,0-0.4,0-0.5,0c-1,0.1-2.5,1.6-3.5,3.2c-0.5,0.2-2.1,0.7-3.9,1.2c-1.1-1.5-1.8-3-2.2-4c-0.2-0.6-0.4-1-0.4-1v0
			c0-0.1-0.1-0.2-0.1-0.3l0.4,0.3v0l1.1,0.8l0.4,0.3c0.1,0,0.1,0.1,0.2,0.1c0,0,0,0,0.1,0l9.2-2.1l0.7-0.2c0.1,0,0.2-0.1,0.2-0.2
			l1.4-4.7c0.2,0,0.5,0,0.6,0c0.2,0,0.4,0,0.6,0l1.5,4.8c0,0.1,0.1,0.2,0.3,0.2l0.5,0.1l0.1,0l9.3,1.1c0.1,0,0.2,0,0.2-0.1l0.9-0.7
			l0.9-0.6l0.3-0.2C241.1,38.9,241,39.1,240.9,39.4L240.9,39.4z M240.9,43.8C241,43.8,241,43.8,240.9,43.8c0.4-0.2,0.8-0.4,1.2-0.6
			c0,0,0,0.1-0.1,0.1c0,0.1-0.1,0.2-0.1,0.2c-0.3,0.5-0.6,1.1-0.9,1.7c-0.2,0.4-0.4,0.8-0.6,1.2c-0.7,1.3-1.9,1.6-2.8,1.8
			c-0.2,0-0.3,0.1-0.4,0.1c-0.1,0-0.2,0-0.3,0.1c-0.7,0.2-1.9,0.5-3,0.7c-0.3,0.1-0.7,0.2-1,0.2c-0.3,0.1-0.7,0.1-1,0.1
			c-0.9,0-1.7-0.3-2.4-1c-0.9-0.9-1.6-1.7-1.8-1.9c0,0,0,0,0,0l-0.3-0.4c-0.1-0.1-0.2-0.2-0.2-0.2s0,0-0.1,0.1l0,0l0.1,0.1l0,0l0,0
			l0,0l-0.2,0.6c0,0-0.1,0.3-0.8,1.7c-0.2,0.6-0.8,0.9-1.3,1.2c-0.7,0.4-1.5,0.5-1.5,0.5c0,0-0.1,0-0.1,0c-0.1,0-0.2,0-0.2,0
			c-0.4,0.1-1,0.2-3.5,0.5c-0.1,0-0.2,0-0.2,0c-0.4,0-0.7,0.1-1,0.1h0h0c-2.6,0-4-1.3-5-2.7c-0.1-0.2-0.3-0.3-0.4-0.5
			c-0.3-0.4-0.6-0.8-0.9-1.3c-0.2-0.3-0.4-0.6-0.6-0.8l0,0c0.1,0,0.1,0.1,0.2,0.1c0.9,0.4,1.8,0.8,1.9,0.9l0.2,0.1l0.2,0
			c2.7-0.8,5.2-1.6,5.3-1.6l0.2-0.1l0.1-0.2c1.5-2.3,2.6-2.9,2.8-2.9c0.2,0,0.3,0,0.5,0c2.1,0,3.8,0.6,3.8,0.6l0.2,0.1l0.2-0.1
			c2.6-0.8,3.8-1.2,4.2-1.2c0.1,0,0.1,0,0.2,0.1c0,0,0.1,0.1,0.1,0.1c1.3,1,2.9,2.3,2.9,2.3l0.1,0.1l0.1,0c0,0,1.8,0.2,2.9,0.3
			c0.5,0,1,0.1,1.5,0.1C239.8,44.2,240.4,44,240.9,43.8L240.9,43.8z M227.1,51.5c-1.3,0.1-2.5-0.1-3.8-0.4c0.1,0,0.2,0,0.3,0
			c0.1,0,2.3-0.3,3.3-1.8l0.1,0l0.2,0c0.2,0,0.3,0,0.5,0c0.4,0,0.8-0.1,1.1-0.2c0,0,0.1,0.1,0.1,0.1c0.8,0.7,1.7,1.2,2.7,1.3
			C229.9,51.2,228.3,51.4,227.1,51.5L227.1,51.5z M228.4,48.7c-0.2,0-0.5,0.1-0.7,0.1c-0.2,0-0.3,0-0.5,0h-0.1
			c0.2-0.4,0.3-0.7,0.4-1C227.8,48,228.1,48.3,228.4,48.7L228.4,48.7z M209.3,39.8c-0.1-0.1-0.3-0.6-0.5-1.3c-0.3-1-0.6-2.2-0.7-3.1
			c-0.1-1.1,0-1.4,0.1-1.4c0.1-0.1,0.6-0.4,1-0.6l0.6,4.7c0,0.1,0.1,0.2,0.1,0.2l1.2,0.8c0,0.1,0,0.1,0.1,0.2c0,0.1,0.1,0.2,0.1,0.3
			C210.8,39.7,209.8,39.9,209.3,39.8L209.3,39.8z M225.2,27.2c-2.5,0.8-4.6,1.7-6.2,2.5c-0.2,0.1-0.3,0.2-0.5,0.3
			c1.8-1.7,3.6-2.6,3.9-2.7l0,0l1.4-0.7c0.8,0,1.6,0,2.3,0h0c0.1,0,0.3,0,0.4,0c0.4,0,0.8,0,1.2,0C226.9,26.7,226.1,26.9,225.2,27.2
			L225.2,27.2z M230.9,27.1c-0.4,0.6-1.1,1.3-1.8,2c-0.8,0-1.7,0-2.6,0c-1.5,0-2.9,0-4.2,0.1c1.9-0.8,4.2-1.6,6.7-2
			c0.7-0.1,1.5-0.2,2.2-0.3C231,26.9,230.9,27,230.9,27.1L230.9,27.1z M228.8,30.5C228.8,30.5,228.9,30.5,228.8,30.5
			c1.5-1.2,2.6-2.6,3.1-3.4c0.2-0.2,0.3-0.4,0.4-0.5c1,0,2.1,0.1,3.1,0.2c0.3,0,0.6,0,0.9,0.1c0.5,0,0.9,0.1,1.4,0.1l0,0
			c-0.1,0.1-0.2,0.1-0.2,0.2C234.4,29.2,230.9,30.1,228.8,30.5L228.8,30.5z M227.2,31.6c0.2,0,2.8-0.3,5.9-1.4
			c3.5,0.3,6.3,0.7,8.2,1l-0.7,4.8l-2.4,1.7l-7.6-0.9l-1.4-4.7c0-0.1-0.1-0.2-0.2-0.2c0,0-1-0.3-2-0.4L227.2,31.6L227.2,31.6z
			 M212.9,30.1c2.1-1,4.5-1.9,7.1-2.5c-0.7,0.5-1.4,1.1-2.2,1.8C215.9,29.7,214.2,29.9,212.9,30.1L212.9,30.1z M216.9,30.4
			c-0.2,0.3-0.5,0.6-0.7,0.9l-1.3,1.9l1.9-1.3c0,0,1.2-0.8,3.2-1.8c2-0.1,4.1-0.2,6.4-0.2c0.6,0,1.1,0,1.7,0
			c-0.4,0.3-0.8,0.6-1.2,0.8l-1.4,0.8c-0.9,0.1-1.6,0.3-1.7,0.3c0,0,0,0-0.1,0c-0.1,0-0.1,0.1-0.1,0.2l-1.4,4.7l-7.6,1.7l-2.4-1.7
			l-0.7-5.6C212.9,31,214.7,30.7,216.9,30.4L216.9,30.4z M208.8,28.2c0.4-0.1,0.9-0.2,1.6-0.3c-0.4,0.3-0.9,0.6-1.4,1L208.8,28.2
			L208.8,28.2z M205.8,33.2c0-0.1,0.1-0.1,0.1-0.2c2.6-3.1,6.3-5.4,7.3-6c0.1,0,0.2,0,0.3,0c0.4,0,0.8-0.1,1.1-0.1
			c0.8-0.1,1.5-0.1,2.3-0.2c0.7,0,1.3-0.1,2-0.1c0.7,0,1.3-0.1,2-0.1c-0.9,0.2-1.8,0.4-2.7,0.6C212.8,28.8,208.3,31.4,205.8,33.2
			L205.8,33.2z M247.4,23.8c0-0.3,0-0.7-0.1-1c0-0.2,0-0.3-0.1-0.5c0-0.2-0.1-0.3-0.1-0.5l0-0.1l-0.1-0.1c-0.5-0.4-1.1-0.7-1.7-1
			c-0.5-0.2-1-0.4-1.4-0.6c-1.4-3.8-3.7-7.1-6.8-9.4c-3.2-2.4-6.9-3.7-10.8-3.7c-3.9,0-7.6,1.3-10.8,3.7c-3.1,2.3-5.4,5.7-6.8,9.4
			c-0.5,0.2-1,0.4-1.4,0.6c-0.6,0.3-1.1,0.6-1.7,1l-0.1,0.1l0,0.1c-0.1,0.2-0.1,0.3-0.1,0.5c0,0.2-0.1,0.3-0.1,0.5
			c0,0.3-0.1,0.7-0.1,1c0,0.7,0,1.3,0.1,2c0.1,0.7,0.2,1.3,0.4,2c0.1,0.3,0.2,0.6,0.3,1c0.1,0.2,0.1,0.3,0.2,0.5
			c0,0.1,0.1,0.2,0.1,0.2l0.1,0.1c0,0,0,0.1,0.1,0.1l0.1,0.1l0.1,0.1c0.1,0.1,0.2,0.1,0.3,0.1l0.3,0.1c0.1,0,0.1,0,0.2,0.1
			c-1.3,1.2-2.8,2.9-4.1,4.9l-1.6,2.5l2.2-2c0,0,1.9-1.7,5.1-3.5l0,0.4c-0.2,0.1-1.2,0.6-1.5,0.9c-0.5,0.4-0.5,1-0.4,2.2
			c0.1,0.6,0.3,1.8,0.6,2.8c0.5,1.8,0.9,2.2,1.2,2.2c0.2,0,0.3,0.1,0.6,0.1c0.6,0,1.4-0.1,1.9-0.3c0.6,1.8,1.4,3.5,2.4,4.9
			c0,0-0.1,0-0.1,0c-0.6-0.3-2.8-1.3-3.5-1.6l-1.5-0.7l0.9,1.4c0.1,0.1,1.6,2.5,2.9,4.1c1.2,1.5,2.8,3,5.8,3c0.4,0,0.7,0,1.1-0.1
			c0.9-0.1,1.6-0.2,2.1-0.3c3.2,1.2,6.7,1.2,10,0c0.9-0.3,1.7-0.8,2.5-1.2l0,0c1.2-0.3,2.6-0.6,3.3-0.8c0.1,0,0.3-0.1,0.4-0.1
			c1-0.2,2.6-0.6,3.4-2.3c0.9-1.7,2.3-4.4,2.3-4.4l0.7-1.2l-1.3,0.6c-0.1,0-1.7,0.7-2.6,1.2c0,0-0.1,0-0.1,0c0.7-1.4,1-2.5,1.2-3
			c0.5,0.1,1.2,0.1,1.7,0.1c0.3,0,0.5,0,0.7-0.1c0.3-0.1,0.6-0.3,1.1-2.2c0.3-1.1,0.5-2.3,0.5-2.9c0.1-1.2,0.1-1.8-0.4-2.2
			c-0.2-0.2-1-0.6-1.3-0.8l0-0.1c0.2,0,0.3,0.1,0.3,0.1l0.3-1.3c0.1,0,0.2-0.1,0.4-0.2c0.2-0.1,0.4-0.2,0.6-0.2l0.3-0.1
			c0.1,0,0.2-0.1,0.3-0.1l0.1-0.1l0.1-0.1c0-0.1,0.1-0.1,0.1-0.1l0.1-0.1c0-0.1,0.1-0.2,0.1-0.2c0.1-0.2,0.1-0.3,0.2-0.5
			c0.1-0.3,0.2-0.6,0.3-1c0.2-0.6,0.3-1.3,0.4-2C247.4,25.2,247.5,24.5,247.4,23.8L247.4,23.8z"/>
	</g>
</g>
<g>
	<path class="st19" d="M321.5,6.9c-12.5,0-22.6,10.1-22.6,22.6c0,10,6.5,18.4,15.4,21.4c1.1,0.2,1.5-0.5,1.5-1.1c0-0.5,0-2.3,0-4.2
		c-6.3,1.4-7.6-2.7-7.6-2.7c-1-2.6-2.5-3.3-2.5-3.3c-2-1.4,0.2-1.4,0.2-1.4c2.3,0.2,3.5,2.3,3.5,2.3c2,3.5,5.3,2.5,6.6,1.9
		c0.2-1.5,0.8-2.5,1.4-3c-5-0.6-10.3-2.5-10.3-11.2c0-2.5,0.9-4.5,2.3-6.1c-0.2-0.6-1-2.9,0.2-6c0,0,1.9-0.6,6.2,2.3
		c1.8-0.5,3.7-0.8,5.7-0.8c1.9,0,3.9,0.3,5.7,0.8c4.3-2.9,6.2-2.3,6.2-2.3c1.2,3.1,0.5,5.4,0.2,6c1.4,1.6,2.3,3.6,2.3,6.1
		c0,8.7-5.3,10.6-10.3,11.1c0.8,0.7,1.5,2.1,1.5,4.2c0,3,0,5.5,0,6.2c0,0.6,0.4,1.3,1.6,1.1c9-3,15.4-11.5,15.4-21.4
		C344.1,17,334,6.9,321.5,6.9z"/>
	<path class="st20" d="M307.5,39.4c0,0.1-0.2,0.1-0.4,0.1c-0.2-0.1-0.3-0.2-0.2-0.3c0-0.1,0.2-0.1,0.4-0.1
		C307.4,39.1,307.5,39.2,307.5,39.4L307.5,39.4z M307.2,39.2"/>
	<path class="st20" d="M308.4,40.4c-0.1,0.1-0.3,0.1-0.5-0.1c-0.1-0.2-0.2-0.4-0.1-0.5c0.1-0.1,0.3-0.1,0.5,0.1
		C308.5,40.1,308.5,40.3,308.4,40.4L308.4,40.4z M308.2,40.1"/>
	<path class="st20" d="M309.3,41.7c-0.1,0.1-0.4,0-0.5-0.2c-0.1-0.2-0.1-0.4,0-0.5c0.1-0.1,0.4,0,0.5,0.2
		C309.4,41.3,309.4,41.6,309.3,41.7L309.3,41.7z M309.3,41.7"/>
	<path class="st20" d="M310.5,42.9c-0.1,0.1-0.4,0.1-0.6-0.1c-0.2-0.2-0.3-0.4-0.1-0.6c0.1-0.1,0.4-0.1,0.6,0.1
		C310.6,42.5,310.6,42.8,310.5,42.9L310.5,42.9z M310.5,42.9"/>
	<path class="st20" d="M312.2,43.7c-0.1,0.2-0.3,0.3-0.6,0.2c-0.3-0.1-0.4-0.3-0.4-0.5c0.1-0.2,0.3-0.3,0.6-0.2
		C312.1,43.3,312.2,43.5,312.2,43.7L312.2,43.7z M312.2,43.7"/>
	<path class="st20" d="M314,43.8c0,0.2-0.2,0.3-0.5,0.3c-0.3,0-0.5-0.1-0.5-0.3c0-0.2,0.2-0.3,0.5-0.3C313.8,43.5,314,43.6,314,43.8
		L314,43.8z M314,43.8"/>
	<path class="st20" d="M315.7,43.5c0,0.2-0.2,0.4-0.4,0.4c-0.3,0-0.5-0.1-0.5-0.2c0-0.2,0.2-0.4,0.4-0.4
		C315.5,43.2,315.7,43.3,315.7,43.5L315.7,43.5z M315.7,43.5"/>
</g>
</svg>
